<svg xmlns="http://www.w3.org/2000/svg" id="Layer_1" viewBox="0 0 61.92 10.72"><defs><style>.cls-1{fill:#f2188f;}</style></defs><path class="cls-1" d="M5.92,.2l1.37,3.11c.05,.11,.15,.18,.27,.2l3.38,.35c.29,.03,.4,.38,.19,.57l-2.53,2.27c-.09,.08-.13,.2-.1,.32l.72,3.32c.06,.28-.24,.5-.49,.36l-2.94-1.71c-.1-.06-.23-.06-.33,0l-2.94,1.71c-.25,.14-.55-.07-.49-.36l.72-3.32c.03-.12-.01-.24-.1-.32L.11,4.42c-.21-.19-.1-.55,.19-.57l3.38-.35c.12-.01,.22-.09,.27-.2L5.32,.2c.12-.26,.49-.26,.6,0Z"></path><path class="cls-1" d="M18.59,.2l1.37,3.11c.05,.11,.15,.18,.27,.2l3.38,.35c.29,.03,.4,.38,.19,.57l-2.53,2.27c-.09,.08-.13,.2-.1,.32l.72,3.32c.06,.28-.24,.5-.49,.36l-2.94-1.71c-.1-.06-.23-.06-.33,0l-2.94,1.71c-.25,.14-.55-.07-.49-.36l.72-3.32c.03-.12-.01-.24-.1-.32l-2.53-2.27c-.21-.19-.1-.55,.19-.57l3.38-.35c.12-.01,.22-.09,.27-.2L17.99,.2c.12-.26,.49-.26,.6,0Z"></path><path class="cls-1" d="M31.26,.2l1.37,3.11c.05,.11,.15,.18,.27,.2l3.38,.35c.29,.03,.4,.38,.19,.57l-2.53,2.27c-.09,.08-.13,.2-.1,.32l.72,3.32c.06,.28-.24,.5-.49,.36l-2.94-1.71c-.1-.06-.23-.06-.33,0l-2.94,1.71c-.25,.14-.55-.07-.49-.36l.72-3.32c.03-.12-.01-.24-.1-.32l-2.53-2.27c-.21-.19-.1-.55,.19-.57l3.38-.35c.12-.01,.22-.09,.27-.2L30.66,.2c.12-.26,.49-.26,.6,0Z"></path><path class="cls-1" d="M43.94,.2l1.37,3.11c.05,.11,.15,.18,.27,.2l3.38,.35c.29,.03,.4,.38,.19,.57l-2.53,2.27c-.09,.08-.13,.2-.1,.32l.72,3.32c.06,.28-.24,.5-.49,.36l-2.94-1.71c-.1-.06-.23-.06-.33,0l-2.94,1.71c-.25,.14-.55-.07-.49-.36l.72-3.32c.03-.12-.01-.24-.1-.32l-2.53-2.27c-.21-.19-.1-.55,.19-.57l3.38-.35c.12-.01,.22-.09,.27-.2l1.37-3.11c.12-.26,.49-.26,.6,0Z"></path><path class="cls-1" d="M56.61,.2l1.37,3.11c.05,.11,.15,.18,.27,.2l3.38,.35c.29,.03,.4,.38,.19,.57l-2.53,2.27c-.09,.08-.13,.2-.1,.32l.72,3.32c.06,.28-.24,.5-.49,.36l-2.94-1.71c-.1-.06-.23-.06-.33,0l-2.94,1.71c-.25,.14-.55-.07-.49-.36l.72-3.32c.03-.12-.01-.24-.1-.32l-2.53-2.27c-.21-.19-.1-.55,.19-.57l3.38-.35c.12-.01,.22-.09,.27-.2l1.37-3.11c.12-.26,.49-.26,.6,0Z"></path></svg>