<svg xmlns="http://www.w3.org/2000/svg" id="Layer_1" viewBox="0 0 234.3 67.22"><defs><style>.cls-1{fill:#fff;}.cls-2{fill:#f2188f;}</style></defs><g><path class="cls-1" d="M111.77,6.61c-19.56,0-25.18,2.78-25.05,13.88l13.81,.26c0-2.51,.59-3.24,10.58-3.24s10.51,1.19,10.51,5.35v4.3c-2.45-3.77-6.54-4.56-17.71-4.56-15.47,0-19.08,3.35-19.35,11.39-2.07,.13-3.27,.18-5.5,.18-8.86,0-9.78-.99-9.78-7.2v-6.94h16.52V7.4h-16.52c0-2.97,0-5.09,.07-7.4l-15.6,.2c.07,2.58,.07,4.69,.07,7.2h-7.07v3.85c-2.64-3.33-8.74-4.64-22.54-4.64C4.89,6.61,.73,10.51,.73,19.23c0,8.2,3.11,11.57,20.82,12.62,12.16,.73,13.29,1.32,13.29,3.17,0,1.72-.59,2.05-8.66,2.05-10.84,0-11.57-.66-11.57-2.45v-.66l-14.61,.26c0,10.91,3.97,12.95,26.17,12.95,20.16,0,23.99-3.57,23.99-13.35,0-7.34-2.97-11.3-21.42-12.29-12.16-.66-13.09-1.12-13.09-2.84,0-1.39,.86-2.05,8.39-2.05,9.12,0,9.85,.66,9.85,2.71v.46l12.82-.23v.43h7.07c0,5.68-.07,9.85-.07,13.09,0,11.17,4.82,13.68,23.4,13.68,1.98,0,4.82-.2,8.72-.4l-.02-4.53c2.07,3.78,7.07,5.32,18.07,5.32,12.69,0,16.13-2.05,18.51-7.01l.13,6.21h14.61c-.07-5.22-.07-8.59-.07-12.56,0-7.93,.07-9.32,.07-14.54,0-8.72-4.43-12.69-25.38-12.69Zm10.31,27.63c0,2.12-1.19,2.91-11.1,2.91s-11.17-.79-11.17-3.04,.86-3.11,11.83-3.11c9.25,0,10.44,.86,10.44,2.97v.26Z"></path><path class="cls-1" d="M225.05,33.91c-2.91,.2-4.1,.26-6.74,.26-8.86,0-9.78-.99-9.78-7.2v-6.94h16.52V7.4h-16.52c0-2.97,0-5.09,.07-7.4l-15.6,.2c.07,2.58,.07,4.69,.07,7.2h-7.07v2.11c-2.47-2.02-6.48-2.9-12.76-2.9-11.57,0-15.8,2.91-18.04,7.73l-.13-6.94h-15c.07,2.78,.07,5.55,.07,8.99v19.37c0,4.23,0,7.34-.07,10.64h15.6c-.07-3.5-.07-6.54-.07-10.58v-5.22c0-8.53,1.12-10.31,9.98-10.31,7.34,0,8.79,1.32,8.79,5.68v1.19l15-.2c.06-3.16,.07-4.51,.07-6.94h3.64c0,5.68-.07,9.85-.07,13.09,0,11.17,4.82,13.68,23.4,13.68,1.98,0,4.82-.2,8.72-.4l-.07-12.49Z"></path></g><rect class="cls-2" x="142.54" y="42.72" width="91.76" height="24.49" rx="12.25" ry="12.25"></rect><g><path class="cls-1" d="M160.79,49.77h-6.16c-.07,.48-.16,1-.27,1.66l-1.05,5.94c-.15,.89-.26,1.52-.38,2.12h6.77c5.16,0,6.23-1.18,6.84-4.64l.07-.44c.51-3.26-.66-4.64-5.82-4.64Zm2.44,4.83v.05c-.3,1.63-.71,2.02-3.38,2.02h-3.16l.74-4.1h3.15c2.67,0,2.94,.41,2.65,2.03Z"></path><path class="cls-1" d="M172.68,52.34c1.92,0,4.58,0,6.36,.01l.45-2.59h-10.84c-.07,.48-.16,.99-.27,1.64l-1.04,5.88c-.16,.92-.27,1.6-.4,2.19h11l.45-2.59c-2.01,.01-4.47,.01-6.39,.01h-1.34l.21-1.15h1.75c1.51,0,1.77,0,5.19,.01l.42-2.42h-6.94l.18-1.01h1.2Z"></path><path class="cls-1" d="M186.14,49.57c-4.94,0-5.86,1.08-6.21,3.11-.38,2.11,.25,2.83,4.58,3.05,3.38,.16,3.63,.36,3.53,.81v.07c-.1,.44-.25,.56-2.8,.56-2.7,0-2.86-.12-2.78-.62l.05-.26-3.28,.05c-.48,2.67,.41,3.32,5.8,3.32,5.08,0,5.87-.94,6.29-3.27,.36-1.97-.19-2.97-4.58-3.2-3.35-.18-3.58-.29-3.52-.67,.07-.36,.37-.48,2.67-.48s2.59,.18,2.5,.6l-.04,.23,3.28-.05c.4-2.2-.04-3.26-5.5-3.26Z"></path><path class="cls-1" d="M193.31,51.41l-1.04,5.88c-.16,.92-.27,1.59-.4,2.19h3.28c.1-.62,.22-1.29,.37-2.19l1.04-5.88c.12-.68,.21-1.14,.3-1.64h-3.28c-.07,.49-.16,.99-.27,1.64Z"></path><path class="cls-1" d="M207.06,53.2l3.26-.05c.57-2.93-.62-3.57-5.88-3.57s-6.5,1.18-7.14,4.83l-.08,.44c-.64,3.64,.55,4.83,5.8,4.83s6.29-.64,6.88-3.94c.07-.42,.25-1.44,.36-1.97h-7.48l-.42,2.42h4.34l-.04,.19c-.08,.45-.33,.57-3.32,.57-2.78,0-3.05-.4-2.71-2.3v-.05c.33-1.79,.73-2.18,3.6-2.18,2.68,0,2.97,.22,2.89,.68l-.03,.1Z"></path><path class="cls-1" d="M221.53,49.77c-.18,1.08-.33,1.98-.51,2.94-.11,.66-.45,2.82-.64,3.95h-.18c-.34-.85-.78-1.94-1.27-3.11l-1.6-3.79h-5.19c-.07,.51-.16,1.03-.29,1.72l-1.04,5.9c-.15,.88-.26,1.49-.38,2.09h3.15c.18-1.09,.34-1.98,.51-2.94,.1-.53,.41-2.44,.66-3.95h.15c.41,1,.88,2.11,1.38,3.31l1.52,3.58h5.17c.11-.67,.21-1.26,.38-2.28l1.01-5.71c.12-.7,.22-1.22,.31-1.72h-3.15Z"></path></g></svg>