<svg xmlns="http://www.w3.org/2000/svg" xmlns:xlink="http://www.w3.org/1999/xlink" id="Layer_1" viewBox="0 0 98.22 44.32"><defs><clipPath id="clippath"><rect x="0" y="0" width="98.22" height="44.32" fill="none"></rect></clipPath></defs><g clip-path="url(#clippath)"><path d="M23.14,44.32l-1.26-.81c.18-.28,18.4-27.76,65.11-16.37l-.35,1.45c-45.62-11.12-63.33,15.45-63.5,15.72"></path><path d="M82.27,18.19c3.02,1.86,6.04,3.72,9.06,5.59,1.56,.96,3.13,1.91,4.68,2.88,.33,.21,.85,.36,.67,.79-.11,.25-.83,.56-1.05,.71-.71,.48-1.42,.95-2.13,1.42-5.93,3.95-11.86,7.9-17.79,11.85-.74,.49,.12,1.57,.86,1.08,5.12-3.41,10.25-6.83,15.37-10.24,1.23-.82,2.47-1.64,3.7-2.47,.85-.56,2.5-1.24,2.58-2.41,.09-1.24-1.4-1.86-2.26-2.39-1.32-.81-2.63-1.62-3.95-2.43-2.97-1.83-5.95-3.66-8.92-5.5-.75-.46-1.58,.64-.82,1.11"></path><path d="M.01,25.48c-.02-.09-.02-.21,0-.38,.01-.16,.03-.29,.03-.38,.03-.46,.11-.9,.22-1.34,.06-.26,.11-.54,.16-.84,.05-.31,.07-.64,.07-.98,.14-.62,.26-1.22,.36-1.8,.09-.58,.15-.95,.17-1.11,0-.06,.08-.4,.25-.99,.14-.45,.26-.88,.36-1.29,.03-.18,.1-.68,.21-1.47,.07-.59,.15-1.07,.22-1.44,.08-.36,.19-.73,.34-1.11,.16-.42,.39-.65,.7-.71,.15-.03,.29,0,.43,.07,.14,.07,.25,.2,.35,.37,.14,.22,.27,.5,.39,.83,.12,.33,.27,.9,.44,1.71,.06,.25,.13,.62,.22,1.1l.33,1.78c.12,.64,.23,1.16,.33,1.57,.1,.41,.22,.75,.36,1.04,.21,.56,.46,1.15,.75,1.79,.3,.64,.5,.95,.6,.93,.15-.03,.32-.52,.51-1.48,.19-.96,.35-2.57,.49-4.85,.03-.26,.05-.64,.06-1.13,.01-.49,0-.97-.03-1.43,.04-.54,.08-1.1,.11-1.67,.03-.58,.04-.89,.03-.95-.01-.06-.02-.13-.03-.19,0-.06-.02-.14-.05-.22,.05-.01,.09-.1,.12-.27,.03-.17,.03-.33,0-.46-.07-.36-.03-.65,.11-.85,.02-.1,.11-.16,.26-.18,.15-.03,.3-.01,.46,.04,.16,.06,.27,.13,.34,.24,.09,.26,.09,1.24,0,2.96,.03,.15,.02,.62-.01,1.4-.03,.45-.05,.87-.04,1.27,.02,.37,.01,.69,0,.97-.02,.27-.06,.41-.11,.41-.11,2.29-.4,4.42-.86,6.39-.21,.93-.53,1.43-.96,1.51-.3,.06-.64-.09-1.03-.43-.42-.38-.73-.78-.95-1.2-.21-.42-.53-1.18-.95-2.27-.32-.55-.55-1.21-.69-1.98-.08-.45-.15-.98-.19-1.59l-.16-1.31c-.1-.5-.18-.84-.24-1.03-.05-.19-.11-.28-.16-.27-.05,0-.11,.13-.16,.38-.06,.25-.13,.65-.22,1.22-.11,.54-.26,1.25-.46,2.14l-.27,1.29c-.14,.49-.23,.98-.25,1.46-.28,1.46-.49,2.79-.63,3.99l-.07,.56c-.1,.53-.23,.82-.41,.85-.13,.02-.29-.04-.48-.18-.22-.15-.35-.3-.37-.45"></path><path d="M11.24,21.8c-.1-.07-.15-.11-.15-.14-.03-.14-.08-.24-.15-.3-.03-.02-.05-.07-.07-.16-.04-.2,0-.56,.1-1.07,.11-.52,.26-1.09,.47-1.7,.06-.09,.13-.24,.22-.45,.09-.21,.14-.33,.18-.36-.01-.05,0-.1,.03-.15,.03-.05,.07-.08,.12-.09l-.02-.11c-.02-.11,.14-.42,.47-.93,.33-.51,.62-.87,.85-1.08,.27-.27,.57-.44,.9-.49,.22-.04,.43-.01,.61,.08,.08,.06,.41,.28,1.01,.65l.81,.49-.16,1c-.05,.36-.05,.67,0,.95,.09,.48,.31,.9,.66,1.29,.09,.13,.24,.23,.45,.33,.21,.09,.41,.13,.6,.12,.28,0,.45,.11,.49,.34,.05,.25-.04,.42-.25,.51-.05,.02-.12,.04-.22,.06-.74,.13-1.47-.27-2.19-1.2-.06-.06-.16-.19-.27-.38-.12-.19-.19-.32-.22-.39-.06,.11-.13,.25-.22,.41-.09,.16-.17,.3-.25,.42-1.11,1.61-2.06,2.49-2.85,2.63-.25,.05-.49,.03-.71-.06-.05-.07-.13-.14-.22-.2m.91-.95c.13-.05,.28-.14,.45-.28,.17-.13,.35-.3,.52-.5,.91-1.12,1.53-2.07,1.88-2.84l.29-.75c-.17-.24-.34-.4-.5-.5-.16-.09-.3-.13-.41-.11-.26,.05-.62,.45-1.06,1.21-.44,.76-.81,1.62-1.11,2.6-.07,.23-.13,.46-.18,.7-.05,.23-.08,.38-.09,.45,.01,.06,.08,.07,.21,.02"></path><path d="M19.87,18.69c-.34-.7-.63-1.39-.87-2.05-.1-.25-.26-.59-.5-1.01-.09-.19-.14-.32-.15-.4-.04-.23,.02-.41,.19-.56,.04-.05,.11-.09,.2-.12,.09-.04,.17-.05,.23-.05,.29,.05,.68,.77,1.17,2.15,.1,.36,.22,.67,.35,.94,.13,.27,.2,.43,.22,.48,.05,.07,.11,.14,.17,.21,.06,.07,.13,.1,.19,.09,.04,0,.07-.04,.12-.1,.19-.28,.39-.63,.6-1.04,.22-.47,.38-.78,.47-.94,.1-.24,.23-.52,.4-.85,.03-.06,.09-.19,.2-.4,.1-.21,.2-.4,.3-.55,.1-.15,.19-.25,.28-.29,.03-.02,.09-.04,.16-.05,.21-.04,.33,.03,.37,.2,.03,.16-.04,.43-.2,.79-.06,.11-.11,.26-.16,.44-.05,.18-.09,.29-.11,.32-.09,.3-.27,.73-.55,1.3-.28,.57-.47,.93-.57,1.07-.02,.03-.11,.13-.26,.32-.16,.18-.29,.39-.4,.63-.33,.45-.58,.69-.76,.72-.11,.02-.24-.02-.37-.11-.16-.07-.4-.46-.75-1.16"></path><path d="M25.84,19.51c-.42-.34-.69-.8-.8-1.4-.11-.6-.1-1.28,.04-2.05,.14-.76,.37-1.47,.69-2.13,.32-.65,.68-1.12,1.08-1.4,.22-.19,.49-.3,.81-.36,.24-.04,.52-.03,.84,.06,.23,.05,.41,.12,.55,.23,.14,.1,.27,.28,.4,.52,.08,.22,.13,.37,.14,.46,.01,.07,.01,.24,0,.51-.07,.49-.19,.91-.38,1.28-.19,.36-.45,.69-.8,.99-.18,.16-.42,.27-.72,.33-.26,.05-.52,.04-.76,0-.25-.05-.45-.16-.61-.32l-.16-.12-.03,.16c-.14,.72-.16,1.32-.08,1.8,.06,.33,.17,.58,.33,.75,.11,.12,.34,.15,.68,.09,.25-.05,.43-.1,.53-.17,.17-.1,.33-.21,.45-.33,.13-.12,.25-.24,.37-.37l.07-.05h-.02c.14-.1,.25-.19,.34-.27,.09-.08,.15-.14,.18-.17,.03,0,.05-.01,.07-.03,.02-.02,.04-.05,.06-.09,.1-.07,.24-.08,.4-.02,.17,.06,.26,.16,.29,.3,0,.1-.09,.29-.25,.55-.16,.26-.29,.41-.39,.44-.01,0-.05,.03-.12,.08-.07,.05-.11,.09-.13,.12h.02c-.09,.17-.19,.26-.3,.28l-.15,.03c-.03,.11-.18,.24-.44,.39-.26,.15-.52,.25-.77,.29-.54,.1-1.02-.02-1.44-.36m2.44-4.75c.23-.46,.3-.88,.23-1.28-.04-.21-.11-.35-.21-.43-.08-.02-.15-.03-.22-.02-.06,.01-.16,.05-.31,.11-.16,.07-.37,.28-.65,.65-.28,.37-.48,.69-.6,.95l-.17,.44c.09-.05,.19-.09,.28-.12,.09-.02,.15-.02,.16,0,.03,.17,.1,.31,.21,.41,.11,.1,.23,.13,.37,.11,.38-.07,.68-.35,.91-.83"></path><path d="M33.2,22.28c-.29-.02-.52-.05-.69-.1-.29-.14-.57-.38-.86-.71-.29-.33-.43-.58-.44-.76,0-.05,.03-.09,.12-.1,.09-.02,.19,0,.3,.02,.12,.03,.2,.08,.27,.14,.2,.18,.44,.33,.72,.45,.28,.12,.49,.15,.62,.1,.28-.1,.5-.29,.66-.57,.16-.27,.3-.64,.41-1.1,.07-.4,.11-.76,.14-1.09,.02-.33,.05-.75,.07-1.25,.01-.42,.03-.7,.04-.84,0-.25,0-.41,0-.51,0-.09-.01-.14-.03-.15-.01,0-.03-.02-.04-.03l-1.1,.88c-.42,.23-.84,.39-1.25,.46-.17,.03-.35,.04-.54,.02-.15-.04-.31-.17-.49-.41-.18-.24-.27-.45-.28-.65-.02-.18,.08-.57,.31-1.18,.22-.61,.36-.91,.42-.91,.06-.01,.08-.08,.06-.2,0-.12,.29-.5,.85-1.14,.38-.49,.72-.88,1.03-1.15,.31-.27,.61-.44,.89-.52,.09,0,.17-.01,.24-.02,.07-.01,.12-.02,.14-.03,.03,0,.08,.03,.17,.06,.08,.03,.19,.06,.33,.09,.28,.06,.56,.25,.82,.55,.26,.3,.43,.62,.52,.95,.03,.28,.01,.56-.04,.84-.05,.28-.13,.42-.23,.43-.1,0-.22,.07-.34,.2-.13,.13-.18,.22-.17,.27,.02,.14-.04,.33-.2,.6l-.04,1.36c-.04,.92-.05,1.45-.04,1.58-.04,.62-.11,1.14-.19,1.59,.01,.36,0,.64-.05,.83-.05,.2-.14,.42-.27,.68-.12,.33-.3,.62-.53,.86-.23,.24-.45,.39-.66,.45-.12,.04-.33,.05-.62,.03m-.96-6.11c.35-.06,.71-.24,1.07-.53,.09-.07,.17-.13,.24-.18,.07-.05,.13-.09,.19-.13,.21-.14,.36-.25,.46-.33,.1-.09,.17-.18,.2-.29,.08-.21,.15-.54,.21-.99,0-.05,.03-.12,.07-.2,.04-.08,.09-.13,.14-.15h.08c.06-.03,.17-.02,.31,0,.06-.04,.09-.11,.1-.21,0-.11,0-.22-.04-.34-.03-.09-.12-.19-.26-.32-.15-.13-.31-.22-.49-.28-.08-.01-.14-.01-.18,0-.13,.02-.26,.11-.4,.26-.14,.15-.32,.39-.55,.71-.05,.06-.1,.12-.14,.18-.04,.06-.08,.11-.13,.16-.41,.55-.74,1.06-.99,1.53-.24,.46-.32,.81-.23,1.04,.03,.09,.14,.11,.34,.07"></path><path d="M38.67,16.02c-.16-.2-.31-.53-.44-.98-.09-.28-.12-.71-.08-1.28,.04-.57,.12-1.14,.26-1.7,.13-.56,.29-.97,.48-1.24,.12-.24,.25-.37,.37-.4,.07-.01,.23,0,.48,.07,.17,.14,.27,.3,.3,.49,.03,.17,0,.4-.11,.68-.18,.37-.31,.82-.41,1.36-.1,.53-.13,1.02-.12,1.45-.05,.43-.06,.72-.04,.84,.02,.1,.06,.17,.13,.22,.07,.05,.16,.07,.29,.07,.25,0,.51-.13,.79-.42,.28-.29,.54-.67,.78-1.15,.23-.48,.4-.99,.49-1.52,.03-.17,.05-.4,.05-.67,.03-.32,.05-.49,.06-.53,.02-.26,.07-.47,.18-.62,.1-.16,.22-.24,.36-.27,.09-.02,.18,0,.28,.04,.09,.02,.16,.05,.2,.09,.04,.04,.07,.12,.09,.23,.03,.14,.04,.26,.05,.36,.05,.27,.06,.52,.02,.74-.04,.22-.11,.51-.21,.86-.09,.26-.16,.51-.21,.75-.12,.47-.33,.99-.63,1.54-.3,.55-.6,.93-.9,1.13-.31,.27-.62,.44-.92,.5-.21,.04-.52,.03-.91-.03-.29-.19-.52-.39-.68-.59"></path><path d="M47.28,15.89c-.31,.06-.62,.04-.93-.06-.31-.1-.58-.26-.82-.49-.2-.17-.36-.37-.48-.61-.12-.24-.21-.54-.28-.9-.02-.13-.06-.38-.1-.76-.05-.47,.02-.98,.19-1.53,.18-.55,.43-1.06,.76-1.52,.33-.46,.67-.81,1.03-1.03,.18-.16,.35-.26,.51-.29,.09-.01,.18-.02,.27-.03,.09,0,.19,0,.29-.01,.28-.01,.5,0,.66,.04,.16,.04,.3,.12,.42,.24,.37,.26,.59,.59,.67,1,0,.31-.13,.69-.39,1.14-.27,.45-.62,.84-1.05,1.16-.21,.12-.46,.2-.75,.25-.39,.07-.71,.05-.98-.07-.12-.01-.21-.02-.27,0-.11,.02-.18,.11-.21,.27-.03,.16-.03,.45,0,.85,0,.09,.02,.22,.05,.38,.12,.64,.39,.95,.83,.93,.3,.01,.51,0,.64-.02,.15-.03,.31-.11,.48-.24l.32-.27c.07-.05,.13-.11,.18-.19,.05-.08,.1-.14,.14-.2,.02-.03,.05-.08,.09-.14,.04-.06,.08-.11,.12-.14,.04-.03,.08-.04,.12-.05,.05,0,.11,0,.18,.06,.07,.04,.13,.08,.17,.09,.11-.02,.15,.05,.12,.22-.03,.17-.13,.38-.3,.62-.17,.24-.37,.47-.6,.68-.26,.33-.61,.54-1.05,.62m.86-5.17c.18-.27,.25-.47,.22-.62-.03-.15-.11-.26-.24-.34-.13-.08-.3-.1-.5-.06-.15,.03-.26,.06-.33,.1-.17,.08-.35,.25-.55,.51-.2,.26-.36,.52-.5,.78-.13,.26-.18,.4-.14,.43,.09,.1,.34,.11,.76,.03,.29-.05,.52-.13,.69-.24,.2-.13,.38-.32,.56-.59"></path><path d="M56.94,13.85c-.16,.03-.32,.04-.46,.04-.14,0-.22-.03-.23-.09,0-.04-.02-.06-.03-.07-.01,0-.04-.01-.08,0-.01,0-.06-.03-.13-.07-.07-.04-.16-.07-.25-.09-.14-.15-.23-.33-.27-.53-.04-.21-.04-.55-.01-1.02-.03-.41,.06-.94,.29-1.6,.23-.66,.52-1.3,.88-1.92,.36-.62,.7-1.07,1.02-1.35,.15-.22,.37-.36,.66-.41,.23-.04,.45-.03,.67,.05,.19,.07,.41,.2,.65,.4,.24,.2,.43,.42,.59,.65,.09,.18,.14,.36,.17,.53,.03,.19,.06,.49,.09,.89-.02,.24-.03,.52,0,.85,.01,.33,.05,.62,.09,.86,0,.18,.04,.32,.11,.41,.07,.1,.15,.14,.24,.12,.06-.01,.13-.04,.2-.09,.11-.09,.25-.14,.39-.17,.14-.03,.26-.01,.36,.05,.1,.06,.17,.16,.19,.31,.04,.22-.07,.48-.34,.76-.26,.28-.53,.45-.81,.5-.19,.03-.39-.08-.6-.35-.21-.26-.43-.61-.67-1.05l-.19-.41-.66,.91-.35,.51c-.16,.24-.25,.38-.27,.42-.09,.26-.4,.55-.91,.86-.12,.05-.23,.08-.33,.1m1.12-2.33c.36-.52,.64-1,.86-1.45,.29-.58,.44-1.13,.45-1.65-.08-.14-.19-.27-.33-.4-.14-.13-.26-.19-.35-.19-.25,.05-.49,.24-.71,.58-.22,.34-.47,.8-.75,1.38l-.45,1.03c-.06,.11-.14,.4-.25,.87-.11,.47-.16,.74-.14,.83,.05,.28,.16,.4,.32,.37,.12-.02,.26-.1,.4-.23,.27-.23,.58-.6,.94-1.12"></path><path d="M66.55,16.63c-.1-.07-.19-.17-.25-.3-.06-.11-.1-.22-.12-.33-.04-.24-.01-.68,.09-1.31,.04-.11,.09-.29,.13-.55,.04-.25,.08-.43,.1-.52l.06-.4c.09-.48,.16-.94,.21-1.38,.04-.34,.08-.6,.11-.78,.01-.22,.04-.5,.09-.83,.05-.33,.08-.56,.1-.68l.08-.5-.36,.57c-.32,.45-.73,.86-1.24,1.24-.51,.39-.94,.61-1.29,.67-.09,.01-.17,.02-.25,0-.16-.01-.35-.1-.59-.28-.24-.17-.39-.35-.44-.52-.07-.09-.11-.2-.14-.34-.05-.29,.02-.75,.23-1.4,.16-.4,.35-.8,.57-1.2,.22-.39,.42-.73,.62-.99,.11-.07,.23-.19,.34-.36,.11-.17,.18-.27,.2-.3,.24-.3,.55-.56,.91-.77,.37-.21,.74-.35,1.12-.42,.29-.05,.54-.05,.75,0,.22,.05,.37,.15,.46,.3,0,.05,.02,.11,.04,.19,.02,.07,.03,.15,.03,.23,.09-.02,.18-.02,.28-.01,.1,0,.16,.02,.17,.04,.03,.38,.03,.64-.02,.76,0,.08-.06,.52-.17,1.33-.12,.81-.21,1.4-.27,1.77-.04,.19-.08,.5-.12,.93-.1,.81-.18,1.34-.25,1.61-.1,.81-.18,1.41-.24,1.8-.06,.4-.15,.84-.26,1.31,.02-.02,.07-.05,.16-.1s.17-.09,.27-.11c.05,0,.15-.06,.29-.15,.14-.09,.22-.13,.24-.12,.06-.01,.11,.04,.13,.17,.03,.14,0,.25-.05,.34-.29,.41-.54,.75-.76,1-.23,.25-.45,.4-.68,.44-.09,.01-.18-.01-.29-.08m-1.66-6.41c.18-.14,.39-.35,.64-.63,.29-.3,.51-.55,.65-.77,.14-.21,.29-.47,.44-.76l.71-1.51c.08-.26,.22-.5,.41-.72l-.29,.03c-.39,.11-.7,.22-.91,.34-.22,.12-.47,.31-.75,.58-.59,.59-1.04,1.16-1.33,1.72-.17,.32-.32,.64-.42,.98-.11,.34-.15,.6-.13,.79,.03,.19,.13,.27,.29,.24,.28-.05,.5-.15,.68-.29"></path><path d="M70.81,10.13c-.16-.2-.31-.53-.44-.98-.09-.28-.12-.71-.08-1.28,.04-.57,.12-1.14,.26-1.7,.13-.56,.29-.98,.48-1.24,.12-.24,.25-.37,.37-.4,.07-.01,.23,0,.48,.07,.17,.14,.27,.3,.3,.49,.03,.17,0,.4-.11,.68-.18,.37-.31,.82-.41,1.36-.1,.53-.13,1.02-.12,1.45-.05,.43-.06,.71-.04,.84,.02,.1,.06,.17,.13,.22,.07,.05,.16,.07,.29,.07,.25,0,.51-.13,.79-.42,.28-.29,.54-.67,.78-1.15,.23-.48,.4-.99,.49-1.52,.03-.18,.05-.4,.05-.67,.03-.32,.05-.49,.06-.53,.02-.26,.07-.47,.18-.62,.1-.16,.22-.24,.36-.27,.09-.01,.18,0,.28,.04,.09,.02,.16,.05,.2,.09,.04,.04,.07,.11,.09,.22,.03,.14,.04,.26,.05,.36,.05,.27,.06,.52,.02,.74-.04,.22-.11,.51-.21,.86-.09,.26-.16,.52-.21,.76-.12,.47-.33,.99-.63,1.54-.3,.55-.6,.93-.9,1.13-.31,.28-.62,.44-.92,.5-.21,.04-.52,.03-.91-.03-.29-.19-.52-.39-.68-.59"></path><path d="M76.98,9.31c-.03-.17-.03-.33,.01-.47-.01-.06-.01-.14,0-.23,0-.09,.01-.15,0-.18-.03-.07-.01-.29,.04-.64,.13-.54,.27-1.48,.42-2.81-.01-.06,0-.12,.05-.17,.04-.05,.11-.09,.21-.13,.1-.04,.16-.07,.2-.07,.07-.01,.15,0,.21,.05,.07,.04,.16,.13,.29,.26,.09,.06,.15,.17,.17,.32,.04,.24,.01,.54-.09,.91-.1,.39-.14,.72-.15,.99-.09,.36-.15,.7-.19,1-.01,.08-.02,.24-.03,.47,0,.23-.04,.43-.11,.58-.01,.36-.04,.62-.07,.77-.04,.15-.09,.23-.17,.24-.09,.01-.22-.05-.4-.2-.21-.14-.34-.38-.4-.7m.52-7.65c-.1-.2-.12-.31-.06-.32,.1-.03,.19-.16,.29-.39,.09-.23,.12-.41,.08-.55,0-.05,0-.1,.03-.15,.03-.05,.07-.09,.12-.11,.09-.08,.17-.13,.25-.14,.21-.04,.43,.07,.66,.34,.1,.15,.17,.29,.19,.41,.02,.11,.01,.23-.03,.36-.04,.13-.13,.3-.25,.52-.16,.33-.33,.51-.52,.54-.13,.02-.27-.01-.45-.11-.1-.07-.2-.21-.31-.41"></path></g></svg>