<svg xmlns="http://www.w3.org/2000/svg" id="Layer_1" viewBox="0 0 187.69 54.56"><defs><style>.cls-1{fill:#fff;}.cls-2{fill:#d0f722;}</style></defs><rect class="cls-1" x="0" y="0" width="187.69" height="54.56" rx="26.06" ry="26.06"></rect><g><circle cx="27.75" cy="27.28" r="18.35"></circle><g><path class="cls-2" d="M27.46,26.41c1.92,0,3.47-1.55,3.47-3.47s-1.55-3.47-3.47-3.47-3.47,1.55-3.47,3.47,1.55,3.47,3.47,3.47Z"></path><path class="cls-2" d="M27.75,26.92h0c-3.32,0-6.01,2.69-6.01,6.01h12.01c0-3.32-2.69-6.01-6.01-6.01Z"></path></g></g><g><path d="M59.11,27.36h-2.36v-1.44h2.36v-2.42h1.47v2.42h2.35v1.44h-2.35v2.42h-1.47v-2.42Z"></path><path d="M72.13,24.11h-6.14v1.65c.38-.49,1.04-.67,2.95-.67,2.76,0,3.51,.66,3.51,2.46v.04c0,1.86-.77,2.5-4.13,2.5s-4.06-.57-4.04-2.35l1.68-.03c0,.75,.27,1,2.36,1s2.41-.27,2.41-1.12v-.04c0-.84-.32-1.12-2.41-1.12-1.98,0-2.35,.24-2.34,.59h-1.66c.02-.5,.02-2.24,.02-2.93,0-.45,0-1.07,0-1.34h3.96c1.26,0,2.8,0,3.84-.01v1.37Z"></path><path d="M73.78,26.52v-.33c0-2.74,.84-3.58,4.42-3.58s4.41,.84,4.41,3.58v.33c0,2.73-.83,3.58-4.41,3.58s-4.42-.85-4.42-3.58Zm7.11-.12v-.08c0-1.74-.4-2.2-2.69-2.2s-2.7,.47-2.7,2.2v.08c0,1.77,.41,2.2,2.7,2.2s2.69-.44,2.69-2.2Z"></path><path d="M84.22,25.47c0-.64,0-1.03,0-1.45h1.59l.02,1.03c.42-.77,1.19-1.15,2.56-1.15,1.44,0,2.06,.35,2.27,1.13,.4-.72,1.13-1.13,2.47-1.13,1.97,0,2.43,.6,2.43,2.02,0,.49,0,.94,0,1.86v.59c0,.53,0,.99,0,1.59h-1.68c0-.52,0-.86,0-1.59v-1.64c0-1.04-.3-1.32-1.5-1.32-1.3,0-1.66,.35-1.66,1.68v1.25c0,.53,0,1,.01,1.62h-1.68c0-.52,0-.86,0-1.58v-1.65c0-1.04-.3-1.32-1.51-1.32-1.29,0-1.65,.35-1.65,1.68v1.25c0,.72,0,1.15,.01,1.62h-1.68c0-.47,0-.9,0-1.62v-2.86Z"></path><path d="M99.07,22.34v1.08h-1.68v-1.08h1.68Zm-1.67,3.35c0-.7,0-1.24,0-1.67h1.68c0,.43,0,.95,0,1.67v2.45c0,.8,0,1.33,0,1.83h-1.68c0-.5,0-1.02,0-1.84v-2.43Z"></path><path d="M100.96,24.03c0-.7,0-1.24,0-1.66h1.68c0,.43,0,.95,0,1.66v4.1c0,.8,0,1.33,0,1.83h-1.68c0-.5,0-1.02,0-1.84v-4.09Z"></path><path d="M114.42,22.75c.69,1.53,2.66,5.82,3.31,7.2h-1.89l-.56-1.28h-4.75l-.57,1.28h-1.81c.68-1.38,2.67-5.66,3.37-7.2h2.89Zm-3.27,4.54h3.52l-.22-.5c-.36-.84-.73-1.72-1.04-2.5h-.98c-.3,.74-.66,1.58-1.01,2.41l-.25,.59Z"></path><path d="M118.96,24.03c0-.7,0-1.24,0-1.66h1.68c0,.43,0,.95,0,1.66v4.1c0,.8,0,1.33,0,1.83h-1.68c0-.5,0-1.02,0-1.84v-4.09Z"></path><path d="M122.46,25.63c0-.64,0-1.08,0-1.6h1.68c-.01,.51-.01,.81-.01,1.6v1.39c0,1.2,.29,1.56,2.01,1.56s2.02-.36,2.02-1.68v-1.25c0-.72,0-1.15,0-1.62h1.68c-.01,.47-.01,.9-.01,1.63v2.85c0,.65,0,1.04,.01,1.45h-1.59l-.02-1c-.43,.74-1.27,1.13-2.84,1.13-2.45,0-2.92-.69-2.92-2.26,0-.5,0-.8,0-1.56v-.63Z"></path><path d="M131.68,25.47c0-.64,0-1.03,0-1.45h1.59l.02,1c.44-.73,1.28-1.13,2.87-1.13,2.48,0,2.95,.69,2.95,2.26,0,.5,0,.81,0,1.56v.63c0,.64,0,1.08,0,1.6h-1.68c.01-.51,.01-.81,.01-1.6v-1.38c0-1.2-.29-1.57-2.04-1.57s-2.05,.35-2.05,1.68v1.25c0,.72,0,1.15,.01,1.62h-1.68c0-.47,0-.9,0-1.62v-2.86Z"></path><path d="M140.6,27.15v-.3c0-2.27,.77-2.94,3.9-2.94s3.9,.67,3.9,2.94v.3c0,2.26-.77,2.93-3.9,2.93s-3.9-.67-3.9-2.93Zm6.11-.13v-.05c0-1.28-.33-1.61-2.21-1.61s-2.2,.33-2.2,1.61v.05c0,1.28,.31,1.61,2.2,1.61s2.21-.33,2.21-1.61Z"></path><path d="M149.51,28.06l1.6-.03v.13c0,.56,.22,.73,2.14,.73,1.65,0,1.82-.14,1.82-.56,0-.44-.18-.58-2.3-.73-2.71-.19-3.17-.64-3.17-1.87,0-1.29,.58-1.84,3.41-1.84,3.05,0,3.49,.5,3.49,1.94l-1.63,.03v-.11c0-.47-.2-.64-1.89-.64-1.55,0-1.78,.16-1.78,.54,0,.4,.15,.53,2.18,.67,2.94,.2,3.35,.73,3.35,1.9,0,1.35-.48,1.86-3.5,1.86s-3.72-.33-3.72-2.02Z"></path></g></svg>