<svg xmlns="http://www.w3.org/2000/svg" id="Layer_1" viewBox="0 0 202.61 50.9"><path d="M52.04,26c.31-.35,.58-.69,.86-1.01,.47-.53,.98-1.01,1.51-1.48,.77-.67,1.58-1.28,2.46-1.79,.86-.51,1.74-.94,2.72-1.17,.5-.12,1.01-.2,1.52-.09,.85,.17,1.4,.82,1.43,1.69,.02,.6-.1,1.18-.25,1.75-.12,.45-.29,.89-.44,1.34-.43,1.24-.8,2.5-1.14,3.77-.37,1.38-.72,2.76-1.01,4.15-.05,.22-.06,.44-.03,.67,.07,.47,.36,.79,.81,.92,.31,.09,.62,.05,.93-.03,.8-.2,1.53-.56,2.23-.99,1.15-.71,2.14-1.59,3.02-2.62,.3-.36,.43-.71,.42-1.17-.03-.76-.03-1.53,0-2.29,.05-1.26,.17-2.51,.46-3.74,.33-1.38,1.19-2.33,2.37-3.02,.38-.22,.78-.38,1.22-.44,.23-.03,.45-.02,.67,.06,.5,.17,.68,.55,.67,1.05,0,.23-.06,.46-.14,.69-.5,1.4-.87,2.84-1.12,4.31-.22,1.3-.29,2.61-.22,3.92,.07,1.16,.23,2.32,.48,3.45,.03,.14,.07,.29,.12,.43,.11,.31,.25,.36,.53,.17,.23-.16,.46-.35,.66-.55,1.54-1.48,2.84-3.14,3.99-4.93,.02-.03,.04-.06,.05-.09,.1-.18,.1-.2-.07-.32-.38-.29-.74-.6-1.05-.97-.66-.8-1.07-1.72-1.29-2.73-.11-.48-.15-.98-.17-1.47-.04-1.02,.06-2.01,.38-2.98,.29-.91,.75-1.72,1.44-2.39,.9-.86,1.97-1.35,3.22-1.3,1.35,.04,2.39,.67,3.04,1.87,.31,.57,.45,1.2,.5,1.85,.1,1.31-.2,2.55-.63,3.77-.24,.7-.54,1.37-.88,2.03,0,0,0,.02-.01,.02-.1,.22-.08,.27,.17,.29,.23,.01,.47,.02,.7,0,.79-.08,1.52-.34,2.17-.81,.22-.16,.42-.33,.6-.54,.25-.28,.51-.54,.81-.77,.22-.17,.4-.41,.6-.61,.5-.53,1.04-1.02,1.63-1.45,1.02-.74,2.12-1.3,3.33-1.63,.65-.18,1.3-.28,1.97-.34,.91-.08,1.81,0,2.69,.18,.89,.18,1.72,.51,2.42,1.1,.58,.49,.98,1.1,1.12,1.86,.12,.64,.13,1.28-.09,1.9-.32,.92-1,1.46-1.9,1.75-.83,.27-1.66,.21-2.49-.05-.26-.08-.5-.2-.67-.43-.25-.34-.19-.61,.18-.81,.22-.12,.46-.2,.68-.33,.36-.21,.56-.53,.59-.93,.05-.64-.17-1.18-.71-1.55-.48-.33-1.03-.46-1.6-.48-1.26-.05-2.35,.41-3.29,1.22-1.11,.95-1.83,2.17-2.34,3.52-.32,.85-.54,1.73-.61,2.63-.1,1.23-.04,2.45,.45,3.61,.17,.4,.4,.77,.72,1.08,.22,.21,.47,.35,.75,.45,.64,.22,1.2,.02,1.73-.32,.46-.29,.84-.68,1.17-1.1,.66-.82,1.07-1.76,1.36-2.76,.4-1.35,1.27-2.29,2.6-2.79,.27-.1,.56-.14,.85-.12,.62,.04,1.03,.46,1.05,1.08,.01,.37-.06,.73-.13,1.08-.2,1.01-.46,2-.67,3-.16,.73-.24,1.46-.19,2.2,.1,1.44,.58,2.73,1.65,3.75,.15,.14,.3,.29,.41,.47,.26,.45,.06,.98-.43,1.14-.28,.09-.57,.1-.85-.01-1.08-.43-2.08-1.01-2.91-1.83-.87-.86-1.44-1.89-1.72-3.08-.02-.06,0-.14-.08-.18-.08,0-.11,.08-.15,.13-.64,.7-1.36,1.3-2.25,1.65-1.3,.52-2.59,.5-3.85-.08-1.94-.9-3.13-2.43-3.56-4.53-.12-.59-.15-1.2-.11-1.81,.05-.71,.17-1.41,.35-2.1,.01-.06,.06-.13,0-.17-.07-.06-.13,.01-.19,.04-.1,.05-.2,.1-.3,.15-.63,.33-1.29,.56-2,.65-.35,.04-.7,.09-1.06,.04-.59-.07-.59-.06-.94,.43-.75,1.05-1.55,2.08-2.42,3.04-.42,.46-.83,.93-1.28,1.37-.97,.93-1.97,1.82-3.13,2.5-.64,.38-1.31,.68-2.05,.8-.37,.06-.74,.07-1.11-.04-.3-.09-.51-.28-.66-.55-.39-.73-.62-1.51-.78-2.31-.09-.42-.17-.83-.22-1.26,0-.07,0-.15-.08-.18-.08-.02-.12,.06-.16,.11-.83,.85-1.74,1.6-2.74,2.24-1.33,.85-2.73,1.53-4.27,1.88-.63,.15-1.27,.2-1.91,.09-1.16-.19-1.96-.84-2.43-1.9-.23-.52-.32-1.08-.35-1.65-.05-1.14,.16-2.25,.4-3.35,.31-1.43,.78-2.81,1.28-4.18,.15-.41,.29-.82,.44-1.23,.07-.2,.12-.4,.15-.61,.06-.39-.16-.59-.53-.48-.25,.07-.48,.2-.7,.34-.56,.36-1.06,.79-1.54,1.24-1.11,1.07-2.1,2.24-2.94,3.54-.5,.77-.94,1.56-1.21,2.45-.12,.42-.2,.84-.3,1.27-.12,.55-.23,1.11-.36,1.66-.32,1.37-1.19,2.27-2.47,2.79-.31,.13-.63,.18-.97,.17-.61-.02-1.01-.39-1.06-1-.02-.27,.02-.54,.07-.8,.07-.34,.13-.68,.2-1.02,.01-.06,.03-.12,0-.19-.11-.02-.17,.06-.24,.12-1.03,.74-2.11,1.41-3.25,1.97-.79,.39-1.59,.76-2.47,.89-.92,.14-1.8,0-2.57-.59-.45-.35-.72-.82-.92-1.34-.03-.07-.03-.15-.11-.22-.1,.02-.14,.11-.2,.18-.71,.83-1.55,1.46-2.6,1.8-1.03,.33-2.06,.3-3.07-.04-.87-.29-1.61-.78-2.25-1.43-.41-.41-.76-.88-1.04-1.4-.02-.03-.03-.06-.05-.09-.09-.15-.12-.15-.24-.02-.06,.07-.12,.15-.19,.22-1.13,1.19-2.32,2.3-3.66,3.25-.73,.52-1.49,.99-2.27,1.43-.79,.44-1.6,.85-2.43,1.19-1.37,.56-2.77,.96-4.24,1.13-.8,.1-1.6,.13-2.39,.09-1.07-.05-2.11-.3-3.12-.68-1.3-.49-2.5-1.18-3.59-2.03-1.04-.82-1.91-1.79-2.61-2.92-1.1-1.76-1.77-3.67-2.11-5.71C.08,29.68-.01,28.74,0,27.8c0-.38,0-.76,0-1.15,0-.81,.08-1.61,.18-2.41,.14-1.13,.35-2.25,.63-3.35,.3-1.22,.68-2.41,1.12-3.58,.38-1.02,.81-2.01,1.29-2.99,.83-1.69,1.79-3.32,2.89-4.85,.84-1.16,1.75-2.27,2.74-3.31,1.39-1.47,2.92-2.75,4.6-3.87,1.28-.85,2.65-1.48,4.14-1.88,1.22-.33,2.46-.47,3.72-.39,1.31,.09,2.54,.46,3.68,1.12,1.41,.83,2.48,1.98,3.19,3.45,.39,.81,.61,1.68,.7,2.58,.08,.84,.06,1.67-.12,2.49-.26,1.24-.82,2.33-1.68,3.28-.81,.89-1.76,1.57-2.82,2.11-.6,.3-1.2,.59-1.85,.76-.31,.08-.62,.09-.93,.06-.45-.04-.71-.4-.61-.84,.06-.3,.24-.51,.47-.7,.87-.72,1.64-1.52,2.25-2.48,.53-.85,.85-1.77,.96-2.76,.11-.94,.06-1.87-.04-2.81-.06-.53-.11-1.05-.27-1.56-.27-.88-.75-1.63-1.52-2.15-.61-.41-1.27-.55-2.01-.48-1.19,.12-2.25,.57-3.25,1.19-1.32,.8-2.45,1.82-3.5,2.95-1.6,1.72-2.93,3.63-4.11,5.66-1.3,2.26-2.34,4.64-3.13,7.12-.5,1.59-.86,3.2-1.09,4.85-.17,1.29-.23,2.58-.16,3.87,.09,1.74,.45,3.42,1.14,5.03,.58,1.35,1.36,2.57,2.44,3.56,1.16,1.06,2.51,1.73,4.07,1.96,1.49,.22,2.94,.03,4.38-.36,1.21-.33,2.33-.85,3.42-1.45,.82-.45,1.62-.91,2.39-1.44,.93-.64,1.78-1.36,2.55-2.18,.08-.08,.14-.17,.22-.26,.38-.4,.33-.26,.33-.85-.02-1.55,.31-3.02,.92-4.43,.71-1.65,1.74-3.07,3.08-4.26,1.52-1.36,3.28-2.24,5.31-2.54,1.48-.22,2.95-.16,4.37,.33,.62,.21,1.2,.52,1.68,.97,.63,.59,1,1.31,1.08,2.19,.03,.38,.04,.75-.04,1.11-.22,1.09-.92,1.74-1.94,2.08-.83,.28-1.66,.25-2.48-.03-.25-.08-.48-.19-.66-.4-.27-.31-.21-.67,.14-.87,.18-.1,.37-.19,.56-.28,.43-.22,.63-.57,.66-1.04,.05-.96-.5-1.55-1.36-1.78-1.28-.35-2.48-.13-3.59,.58-.65,.42-1.19,.96-1.64,1.58-1.07,1.47-1.65,3.12-1.91,4.91-.06,.38-.09,.76-.08,1.14,0,1.11,.17,2.18,.78,3.14,.36,.56,.84,.94,1.5,1.07,.45,.08,.85-.05,1.22-.26,.61-.34,1.08-.84,1.49-1.4,.59-.8,.96-1.7,1.24-2.65,.43-1.47,1.39-2.43,2.9-2.81,.31-.08,.62-.06,.92,.05,.31,.11,.51,.33,.6,.64,.07,.25,.08,.49,.04,.75-.14,.87-.36,1.72-.52,2.58-.08,.42-.15,.84-.22,1.26-.02,.14-.03,.28,0,.42,.12,.74,.77,1.08,1.38,.86,.5-.18,.97-.42,1.43-.68,1.11-.64,2.13-1.4,3.11-2.23,.13-.11,.18-.25,.21-.4,.26-1.35,.52-2.7,.78-4.04,.26-1.34,.52-2.68,.78-4.02,.08-.39,.19-.76,.38-1.1,.37-.68,.95-1.09,1.69-1.29,.49-.13,.99-.18,1.5-.17,.69,.01,1.1,.41,1.13,1.1,.01,.26-.02,.52-.08,.78-.23,1.04-.46,2.09-.69,3.13-.02,.07-.05,.15-.03,.27Zm27.18-4.01c.02-.23-.02-.55-.06-.87-.06-.43-.17-.85-.37-1.24-.13-.26-.31-.48-.55-.65-.38-.26-.81-.18-1.08,.19-.13,.18-.22,.38-.27,.59-.14,.52-.15,1.05-.09,1.58,.13,.99,.48,1.9,1.01,2.74,.19,.3,.41,.59,.63,.86,.11,.13,.15,.12,.21-.04,0-.02,.01-.03,.02-.05,.33-.98,.55-1.97,.54-3.1Z"></path><g><path d="M178.32,50.89c-7.96,0-15.93,0-23.89,0-.31,0-.39-.05-.39-.38,.01-15.93,.01-31.86,0-47.78,0-.36,.1-.4,.42-.4,15.91,0,31.83,0,47.74,0,.33,0,.42,.05,.42,.41-.01,15.91-.01,31.83,0,47.74,0,.37-.1,.43-.44,.43-7.95-.01-15.9,0-23.85,0Zm0-2.88c6.89,0,13.78,0,20.67,0q.72,0,.72-.74c0-13.78,0-27.56,0-41.34q0-.71-.71-.71c-13.8,0-27.59,0-41.39,0q-.7,0-.7,.72c0,13.78,0,27.56,0,41.34q0,.74,.73,.74c6.89,0,13.78,0,20.67,0Z"></path><path d="M167.33,27.61c0-2.45,0-4.9,0-7.35,0-.76,.02-.77,.76-.77,1.94,0,3.89,0,5.83,0,2.99,0,5.19,2.07,5.49,5.06,.26,2.63-1.62,5.36-4.33,5.75-1.02,.14-2.05,.04-3.08,.05-1.43,.01-1.43,0-1.43,1.42,0,1.15-.02,2.31,0,3.46,0,.42-.14,.56-.55,.54-.68-.03-1.36,0-2.04,0-.65,0-.67-.01-.67-.66,0-2.5,0-4.99,0-7.49Zm3.25-2.7c0,.69,0,1.39,0,2.08,0,.31,.11,.48,.44,.48,1.1,0,2.21,0,3.31-.02,.56,0,.98-.31,1.3-.75,.68-.95,.68-2.46,.02-3.44-.37-.55-.89-.85-1.55-.87-1.03-.02-2.05,0-3.08-.01-.32,0-.45,.13-.45,.46,.01,.69,0,1.39,0,2.08Z"></path><path d="M185.74,23.53c1.38-.01,2.81,.38,4.08,1.32,.33,.24,.38,.45,.12,.77-.24,.31-.47,.64-.65,.99-.22,.41-.43,.47-.85,.19-.94-.63-1.97-1.07-3.15-1.01-.39,.02-.75,.1-1.08,.31-.63,.43-.66,1.26-.06,1.72,.49,.37,1.08,.5,1.67,.65,1.09,.27,2.18,.51,3.17,1.09,1.1,.65,1.74,1.55,1.66,2.86-.08,1.4-.76,2.44-2.05,2.99-2.17,.93-4.32,.69-6.44-.18-.56-.23-1.07-.54-1.55-.9-.2-.15-.24-.3-.11-.52,.27-.43,.53-.86,.77-1.31,.17-.32,.35-.32,.64-.14,.96,.62,1.98,1.12,3.13,1.28,.6,.09,1.2,.09,1.77-.15,.42-.17,.72-.45,.77-.93,.05-.52-.24-.84-.66-1.05-.8-.4-1.66-.59-2.52-.8-.74-.18-1.46-.41-2.12-.81-1.78-1.08-2.07-3.34-.62-4.87,1.06-1.12,2.4-1.53,4.08-1.52Z"></path></g><g><path d="M117.67,31.22v-7.91c0-2.58,.86-3.54,3.33-3.54s3.33,.96,3.33,3.54v7.91c0,2.6-.86,3.56-3.33,3.56s-3.33-.96-3.33-3.56Zm4.7,.02v-7.93c0-1.31-.45-1.74-1.37-1.74s-1.37,.43-1.37,1.74v7.93c0,1.31,.47,1.76,1.37,1.76s1.37-.45,1.37-1.76Z"></path><path d="M132.94,22.72v2.66c0,1.84,.02,3.07,.02,5.99,0,2.7-1,3.41-3.15,3.41s-3.15-.72-3.15-3.41c0-2.92,.02-4.15,.02-5.99v-2.7c0-1.1,0-2.11-.02-2.66h1.94c-.02,.67-.02,1.58-.02,2.64v8.71c0,1.19,.39,1.64,1.23,1.64s1.23-.45,1.23-1.64v-8.67c0-1.08,0-2-.02-2.68h1.94c-.02,.55-.02,1.58-.02,2.7Z"></path><path d="M116.99,37.09v-1.02h17.63v1.02h-17.63Z"></path></g></svg>