<svg xmlns="http://www.w3.org/2000/svg" id="Layer_1" viewBox="0 0 128.63 128.63"><polygon points="128.63 63.65 71.09 63.65 127.53 52.42 127.26 51.11 70.83 62.34 123.99 40.32 123.48 39.09 70.32 61.1 118.16 29.14 117.42 28.03 69.58 59.99 110.27 19.31 109.32 18.37 68.64 59.05 100.6 11.21 99.49 10.47 67.53 58.31 89.54 5.15 88.31 4.64 66.29 57.8 77.52 1.37 76.21 1.11 64.98 57.54 64.98 0 63.65 0 63.65 57.54 52.42 1.11 51.11 1.37 62.34 57.8 40.32 4.64 39.09 5.15 61.1 58.31 29.14 10.47 28.03 11.21 59.99 59.05 19.31 18.37 18.37 19.31 59.05 59.99 11.21 28.03 10.47 29.14 58.31 61.1 5.15 39.09 4.64 40.32 57.8 62.34 1.37 51.11 1.11 52.42 57.54 63.65 0 63.65 0 64.98 57.54 64.98 1.11 76.21 1.37 77.52 57.8 66.29 4.64 88.31 5.15 89.54 58.31 67.53 10.47 99.49 11.21 100.6 59.05 68.64 18.37 109.32 19.31 110.27 59.99 69.58 28.03 117.42 29.14 118.16 61.1 70.32 39.09 123.48 40.32 123.99 62.34 70.83 51.11 127.26 52.42 127.53 63.65 71.09 63.65 128.63 64.98 128.63 64.98 71.09 76.21 127.53 77.52 127.26 66.29 70.83 88.31 123.99 89.54 123.48 67.53 70.32 99.49 118.16 100.6 117.42 68.64 69.58 109.32 110.27 110.27 109.32 69.58 68.64 117.42 100.6 118.16 99.49 70.32 67.53 123.48 89.54 123.99 88.31 70.83 66.29 127.26 77.52 127.53 76.21 71.09 64.98 128.63 64.98 128.63 63.65"></polygon></svg>