<svg xmlns="http://www.w3.org/2000/svg" id="Layer_1" viewBox="0 0 192.16 98.64"><path d="M2.07,7.15c0-1.88,0-3.36-.04-4.73H20.4c14.73,0,18.17,3.36,18.17,13.25v1.25c0,9.89-3.44,13.25-18.17,13.25H2.03c.04-1.72,.04-3.52,.04-6.06V7.15Zm9.3,3.28v11.72h9.03c7.62,0,8.6-1.13,8.6-5.78v-.16c0-4.61-.98-5.78-8.6-5.78H11.37Z"></path><path d="M42.56,19.23v-1.17c0-8.83,3.32-11.41,15.63-11.41s15.71,2.58,15.63,11.41v1.99h-22c.27,2.93,1.49,3.59,6.41,3.59,5.86,0,6.6-.55,6.6-2.23l8.99,.16c0,6.76-2.85,9.07-15.63,9.07s-15.63-2.58-15.63-11.41Zm9.34-3.91h12.62c-.2-2.27-1.25-2.85-6.29-2.85-4.65,0-6.02,.51-6.33,2.85Z"></path><path d="M76.87,22.98l8.64-.16v.39c0,1.06,.43,1.45,6.84,1.45,4.77,0,5.12-.2,5.12-1.21,0-1.09-.66-1.45-7.85-1.88-10.47-.63-12.31-2.62-12.31-7.46,0-5.16,2.46-7.46,13.87-7.46,13.05,0,14.46,1.99,14.46,7.66l-8.71,.16v-.27c0-1.21-.43-1.6-5.82-1.6-4.46,0-4.96,.39-4.96,1.21,0,1.02,.55,1.29,7.74,1.68,10.9,.59,12.66,2.93,12.66,7.27,0,5.78-2.27,7.89-14.19,7.89-13.13,0-15.47-1.21-15.47-7.66Z"></path><path d="M119.82,0V4.81h-9.22V0h9.22Zm-9.18,13.33c0-2.62,0-4.61-.04-6.21h9.22c-.04,1.56-.04,3.56-.04,6.17v8.87c0,3.63,0,5.9,.04,8.01h-9.22c.04-2.15,.04-4.38,.04-8.05V13.33Z"></path><path d="M124.51,16.76v-.16c0-8.09,2.27-9.96,12.23-9.96,6.02,0,8.87,1.91,10.36,4.57l.08-4.1h8.87c-.04,1.05-.04,3.05-.04,5.39v5.94c0,4.69,.04,6.76,.04,9.85,0,5.67-3.28,7.82-16.18,7.82s-14.65-1.56-14.65-7.97l8.44-.16c0,1.02,.51,1.37,5.86,1.37,6.76,0,7.58-.63,7.58-2.85v-4.18c-1.45,2.93-4.22,4.42-10.36,4.42-9.81,0-12.23-1.88-12.23-9.96Zm22.35,0v-.31c0-1.6-.98-2.27-6.76-2.27-5.31,0-6.37,.62-6.37,2.46v.04c0,1.84,1.06,2.5,6.53,2.5s6.6-.63,6.6-2.42Z"></path><path d="M161.56,12.43c0-2.03,0-3.67-.04-5.31h8.87l.08,4.3c1.6-2.97,4.53-4.77,11.37-4.77,8.67,0,10.32,2.5,10.32,7.7,0,2.23-.04,3.71-.04,7.23v2.5c0,2.03,0,3.87,.04,6.1h-9.22c.04-2.15,.04-3.4,.04-6.1v-4.53c0-3.99-.74-4.81-6.1-4.81s-6.17,.86-6.17,5.12v4.06c0,2.38,0,4.18,.04,6.25h-9.22c.04-1.95,.04-3.79,.04-6.29V12.43Z"></path><path d="M3.87,59.75H.78v-7.19H6.53c.55-1.52,1.13-3.01,1.68-4.53h-2.85v-7.19h5.43c.55-1.49,1.06-2.93,1.6-4.42h8.36l-1.6,4.42h7.97l1.6-4.42h8.36c-.55,1.49-1.09,2.93-1.64,4.42h3.13v7.19h-5.78c-.55,1.52-1.13,3.01-1.68,4.53h2.89v7.19h-5.47c-.55,1.49-1.05,2.93-1.6,4.42h-8.36l1.6-4.42h-7.97l-1.6,4.42H2.23c.55-1.49,1.09-2.93,1.64-4.42Zm18.95-7.19l1.64-4.53h-7.97l-1.64,4.53h7.97Z"></path><path d="M43.89,46.39c0-1.88,0-3.4-.04-5.08h6.21l.04,3.63c1.64-2.62,4.85-4.1,10.82-4.1,10.2,0,12.86,2.42,12.86,11.33v1.17c0,8.87-2.74,11.29-13.05,11.29-5.55,0-8.68-1.33-10.39-3.79,0,4.1,0,7.23,.04,8.79h-6.53c.04-1.17,.04-3.13,.04-5.47v-17.78Zm14.69,12.47c7.31,0,8.71-1.17,8.71-6.02v-.2c0-4.88-1.41-6.02-8.56-6.02s-8.44,1.29-8.44,5.98v.31c0,4.65,1.41,5.94,8.28,5.94Z"></path><path d="M78.75,57.45c0-5.2,2.07-7.35,12-7.35,6.02,0,9.07,.7,10.67,2.38v-2.54c0-3.24-.98-4.18-8.01-4.18s-7.62,.66-7.62,2.77l-5.94-.12c-.08-5.63,2.74-7.58,13.76-7.58,11.96,0,14.26,2.42,14.26,7.7,0,3.09-.04,4.26-.04,8.21,0,2.34,0,4.34,.04,7.42h-5.98l-.08-3.01c-1.41,2.23-4.42,3.48-11.06,3.48-10,0-12-2.03-12-7.19Zm22.82-.2v-.7c0-1.52-1.06-2.38-8.05-2.38-7.54,0-8.36,.86-8.36,3.01s1.17,2.85,8.17,2.85,8.25-.86,8.25-2.77Z"></path><path d="M115.09,46.9c0-2.46,0-3.99-.04-5.59h6.14l.08,3.71c1.56-2.74,4.53-4.18,10.2-4.18,8.13,0,10.04,1.84,10.04,7.89,0,1.02,0,1.68-.04,2.93l-6.21,.08v-.74c0-3.52-.82-4.38-6.49-4.38-5.98,0-7.27,1.25-7.27,7.07v4.22c0,2.77,0,4.42,.04,6.25h-6.49c.04-1.8,.04-3.48,.04-6.25v-11.02Z"></path><path d="M145.34,57.45c0-5.2,2.07-7.35,12-7.35,6.02,0,9.07,.7,10.67,2.38v-2.54c0-3.24-.98-4.18-8.01-4.18s-7.62,.66-7.62,2.77l-5.94-.12c-.08-5.63,2.74-7.58,13.76-7.58,11.96,0,14.26,2.42,14.26,7.7,0,3.09-.04,4.26-.04,8.21,0,2.34,0,4.34,.04,7.42h-5.98l-.08-3.01c-1.41,2.23-4.42,3.48-11.06,3.48-10,0-12-2.03-12-7.19Zm22.82-.2v-.7c0-1.52-1.06-2.38-8.05-2.38-7.54,0-8.36,.86-8.36,3.01s1.17,2.85,8.17,2.85,8.25-.86,8.25-2.77Z"></path><path d="M12.9,78.67h-2.66c-1.56,0-7.89,0-10.24,.04v-8.28H35.09v8.28c-2.34-.04-5.16-.04-6.72-.04h-6.17v13.25c0,2.58,0,4.49,.04,6.25H12.86c.04-1.72,.04-3.63,.04-6.25v-13.25Z"></path><path d="M37.52,87.23v-1.17c0-8.83,2.97-11.41,15.79-11.41s15.79,2.58,15.79,11.41v1.17c0,8.83-2.97,11.41-15.79,11.41s-15.79-2.58-15.79-11.41Zm22.35-.59v-.04c0-3.4-.74-4.26-6.56-4.26s-6.57,.86-6.57,4.26v.04c0,3.4,.74,4.3,6.57,4.3s6.56-.9,6.56-4.3Z"></path><path d="M72.85,87.23v-1.17c0-9.14,2.27-11.41,12.23-11.41,5.71,0,8.56,1.68,10.08,4.1,0-4.1-.04-8.13-.08-9.81h9.3c-.04,1.56-.04,3.6-.04,6.21v16.84c0,2.93,0,4.26,.04,6.17h-8.87l-.08-4.06c-1.41,2.66-4.14,4.53-10.2,4.53-9.96,0-12.39-2.27-12.39-11.41Zm22.35-.43v-.31c0-3.4-.98-4.14-6.45-4.14s-6.68,.66-6.68,4.3v.04c0,3.24,1.06,3.87,6.84,3.87,5.31,0,6.29-.74,6.29-3.75Z"></path><path d="M108.99,87.23v-1.17c0-8.83,2.97-11.41,15.79-11.41s15.79,2.58,15.79,11.41v1.17c0,8.83-2.97,11.41-15.79,11.41s-15.79-2.58-15.79-11.41Zm22.35-.59v-.04c0-3.4-.74-4.26-6.56-4.26s-6.57,.86-6.57,4.26v.04c0,3.4,.74,4.3,6.57,4.3s6.56-.9,6.56-4.3Z"></path><path d="M143.62,90.98l8.64-.16v.39c0,1.06,.43,1.45,6.84,1.45,4.77,0,5.12-.2,5.12-1.21,0-1.09-.66-1.45-7.85-1.88-10.47-.63-12.31-2.62-12.31-7.46,0-5.16,2.46-7.46,13.87-7.46,13.05,0,14.46,1.99,14.46,7.66l-8.71,.16v-.27c0-1.21-.43-1.6-5.82-1.6-4.46,0-4.96,.39-4.96,1.21,0,1.02,.55,1.29,7.74,1.68,10.9,.59,12.66,2.93,12.66,7.27,0,5.78-2.27,7.89-14.19,7.89-13.13,0-15.47-1.21-15.47-7.66Z"></path><path d="M186.76,89.1v9.07h-9.77v-9.07h9.77Zm-.2-18.68c-.04,.7-1.09,14.15-1.17,16.84h-7.03c-.08-2.7-1.13-16.14-1.17-16.84h9.38Z"></path></svg>