<svg xmlns="http://www.w3.org/2000/svg" xmlns:xlink="http://www.w3.org/1999/xlink" id="Layer_1" viewBox="0 0 193 68.5"><defs><style>.cls-1{fill:#fff;}.cls-2{clip-path:url(#clippath-2);}.cls-3{clip-path:url(#clippath-1);}.cls-4{clip-path:url(#clippath);}.cls-5{fill:#d0f722;}</style><clipPath id="clippath"><path class="cls-5" d="M28.03,42.39c.56-.95,1.12-1.92,1.66-2.88,.1-.16,.16-.2,.33-.08,.3,.2,.62,.28,.99,.29,.41,.02,.76,.15,1.03,.46,.21,.25,.44,.46,.74,.61,.1,.05,.13,.1,.07,.2-.64,1.12-1.3,2.23-1.94,3.35l-.03,.02c-.21-.51-.41-1.03-.62-1.53-.15-.39-.3-.48-.71-.41-.53,.08-1.07,.17-1.66,.25,.05-.12,.1-.2,.15-.28m10.07,.72c-.39-.69-.79-1.38-1.2-2.07-.07-.12-.08-.2,.07-.26,.28-.13,.51-.36,.71-.59,.28-.31,.62-.44,1.03-.46,.38,0,.74-.11,1.05-.33,.11-.06,.16-.06,.23,.05,.61,1.07,1.21,2.12,1.86,3.22-.59-.1-1.15-.16-1.72-.26-.35-.07-.53,.03-.66,.36-.18,.46-.36,.94-.54,1.4-.02,.07-.02,.15-.1,.2-.25-.41-.48-.84-.72-1.25m-5.37-3.56c-.46-.49-1-.74-1.66-.76-.39,0-.69-.18-.8-.57-.02-.07-.05-.13-.07-.2-.16-.67-.57-1.13-1.17-1.48-.56-.33-.56-.44-.48-1.12,.08-.64-.02-1.23-.39-1.76-.03-.03-.05-.05-.07-.08-.28-.38-.26-.76,0-1.13,.1-.11,.18-.25,.25-.38,.17-.29,.26-.62,.23-.97,.03-.28-.03-.54-.05-.79-.03-.31,.08-.54,.33-.71,.1-.07,.18-.13,.28-.18,.54-.29,.87-.74,1.05-1.31,.23-.74,.33-.82,1.1-.87,.56-.05,1.02-.26,1.4-.67,.07-.07,.13-.15,.2-.21,.31-.33,.58-.39,.99-.21,.69,.3,1.36,.31,2.05,0,.44-.18,.71-.1,1.05,.3,.31,.36,.69,.66,1.18,.76,.23,.05,.48,.07,.7,.1,.3,.03,.49,.18,.59,.46,.07,.21,.15,.44,.23,.66,.15,.41,.43,.72,.79,.95,.07,.05,.12,.08,.18,.11,.56,.33,.64,.53,.54,1.17-.1,.62,0,1.2,.38,1.72,.03,.03,.05,.08,.08,.11,.26,.36,.28,.76,0,1.12-.43,.57-.57,1.2-.44,1.9,.08,.51-.08,.87-.56,1.12-.56,.28-.92,.72-1.08,1.33,0,.03,0,.05-.02,.08-.18,.58-.3,.74-1,.79-.56,.03-1.09,.21-1.45,.67-.41,.53-.85,.64-1.46,.35-.51-.26-1.04-.2-1.56,0-.31,.12-.5,.19-.66,.19-.23,0-.38-.14-.69-.48m2.78-14.27c-.43,.18-.85,.21-1.28,0-.25-.11-.53-.18-.82-.16-.3-.03-.57,.1-.85,.28-.18,.13-.35,.28-.49,.46-.26,.31-.59,.46-1,.48-.79,.03-1.41,.36-1.64,1.15-.16,.62-.49,1.05-1.05,1.36-.64,.36-.89,.97-.76,1.67,.1,.56,.03,1.07-.34,1.51-.02,0-.02,.02-.02,.02-.36,.61-.41,1.21-.07,1.84,.07,.12,.13,.23,.21,.33,.25,.34,.29,.72,.23,1.15-.16,.92,.12,1.53,.92,2,.17,.1,.31,.2,.44,.31,.3,.3,.36,.62,.15,.99-.67,1.18-1.36,2.38-2.05,3.56-.2,.33-.2,.67,.03,1,.23,.31,.54,.43,.94,.36,.43-.07,.85-.11,1.25-.16,.15-.03,.18,.02,.23,.13,.16,.43,.33,.85,.51,1.28,.26,.59,1.02,.74,1.48,.28,.1-.12,.16-.25,.25-.38,.72-1.23,1.43-2.46,2.13-3.69,.07-.08,.12-.16,.21-.21,.46-.2,.92-.28,1.4-.05,.15,.07,.26,.15,.34,.3,.72,1.26,1.46,2.51,2.18,3.78,.2,.35,.48,.56,.87,.53,.41-.03,.69-.26,.84-.66,.15-.39,.31-.79,.46-1.18,.05-.11,.1-.15,.21-.13,.43,.07,.84,.1,1.25,.18,.43,.08,.77-.02,1-.36,.23-.35,.21-.69,0-1.05-.71-1.22-1.41-2.45-2.12-3.66-.05-.1-.11-.2-.07-.31,.1-.26,.2-.51,.44-.66,.12-.08,.25-.15,.36-.23,.67-.43,1.02-1,.87-1.81-.1-.56,0-1.03,.33-1.49,.46-.66,.43-1.35-.02-2.02-.03-.05-.07-.08-.1-.13-.26-.34-.33-.72-.25-1.15,.15-.77-.03-1.46-.74-1.87-.56-.33-.89-.75-1.07-1.4-.2-.67-.71-1.07-1.4-1.1-.61-.03-1.05-.25-1.46-.71-.33-.37-.71-.55-1.14-.55-.26,0-.53,.06-.82,.19"></path></clipPath><clipPath id="clippath-1"><path class="cls-5" d="M34.77,37.4c-2.45-.07-4.29-2.09-4.25-4.39-.03-2.2,1.76-4.39,4.45-4.35,2.55,.05,4.3,2.17,4.29,4.4-.02,2.26-1.86,4.34-4.37,4.34-.04,0-.08,0-.12,0m-5.19-4.39c-.05,2.78,2.22,5.31,5.27,5.32,3.02,0,5.3-2.5,5.32-5.27,.03-2.73-2.14-5.34-5.29-5.34s-5.35,2.61-5.3,5.29"></path></clipPath><clipPath id="clippath-2"><path class="cls-5" d="M36.21,31.5c-.43,.66-.87,1.3-1.3,1.95-.1,.15-.17,.15-.28,.02-.21-.25-.46-.48-.69-.71-.1-.1-.21-.18-.35-.18-.23,0-.36,.08-.48,.28-.1,.2-.07,.38,.08,.52,.44,.46,.87,.9,1.33,1.33,.23,.22,.53,.17,.71-.1,.59-.87,1.17-1.74,1.74-2.61,.08-.11,.11-.25,.08-.38-.05-.18-.16-.31-.35-.35-.04-.01-.09-.02-.13-.02-.15,0-.28,.07-.38,.23"></path></clipPath></defs><path class="cls-1" d="M158.75,68.5H34.25C15.33,68.5,0,53.17,0,34.25S15.33,0,34.25,0h124.5c18.92,0,34.25,15.33,34.25,34.25s-15.33,34.25-34.25,34.25"></path><path d="M59,34.25c0,12.98-10.52,23.5-23.5,23.5s-23.5-10.52-23.5-23.5S22.52,10.75,35.5,10.75s23.5,10.52,23.5,23.5"></path><path d="M84.61,36.3c-.09,1.18-.52,2.1-1.3,2.78-.78,.68-1.82,1.01-3.1,1.01-1.4,0-2.5-.47-3.31-1.42-.8-.94-1.21-2.24-1.21-3.89v-.67c0-1.05,.19-1.98,.56-2.78,.37-.8,.9-1.42,1.59-1.84s1.49-.64,2.4-.64c1.26,0,2.28,.34,3.05,1.01,.77,.68,1.22,1.62,1.34,2.85h-2.25c-.05-.71-.25-1.22-.59-1.54-.34-.32-.85-.48-1.54-.48-.75,0-1.31,.27-1.69,.81-.37,.54-.56,1.37-.57,2.5v.83c0,1.18,.18,2.04,.54,2.59s.92,.82,1.69,.82c.7,0,1.21-.16,1.56-.48,.34-.32,.54-.81,.59-1.48h2.25Z"></path><path d="M89.68,40.09c-1.19,0-2.16-.36-2.91-1.1-.75-.73-1.12-1.7-1.12-2.92v-.21c0-.82,.16-1.55,.47-2.19,.32-.64,.76-1.14,1.34-1.49s1.24-.52,1.98-.52c1.11,0,1.99,.35,2.62,1.05,.64,.7,.96,1.69,.96,2.98v.89h-5.17c.07,.53,.28,.96,.63,1.28,.35,.32,.8,.48,1.34,.48,.84,0,1.49-.3,1.96-.91l1.07,1.19c-.33,.46-.77,.82-1.32,1.08-.55,.26-1.17,.39-1.85,.39m-.25-6.68c-.43,0-.78,.15-1.05,.44-.27,.29-.44,.71-.51,1.25h3.02v-.17c0-.48-.14-.86-.39-1.12-.25-.26-.61-.4-1.07-.4"></path><path d="M98.82,33.85c-.3-.04-.56-.06-.78-.06-.82,0-1.36,.28-1.61,.83v5.32h-2.17v-8.12h2.05l.06,.97c.43-.75,1.04-1.12,1.81-1.12,.24,0,.47,.03,.68,.1l-.03,2.09Z"></path><path d="M102.84,29.82v2h1.39v1.59h-1.39v4.06c0,.3,.06,.51,.17,.64,.12,.13,.34,.19,.66,.19,.24,0,.45-.02,.64-.05v1.64c-.43,.13-.86,.19-1.31,.19-1.52,0-2.3-.77-2.33-2.31v-4.38h-1.19v-1.59h1.19v-2h2.17Z"></path><path d="M105.42,29.71c0-.33,.11-.59,.33-.8,.22-.21,.51-.32,.89-.32s.67,.11,.89,.32c.22,.21,.33,.48,.33,.8s-.11,.6-.33,.81c-.22,.21-.52,.32-.88,.32s-.66-.11-.88-.32c-.22-.21-.33-.48-.33-.81m2.3,10.23h-2.18v-8.12h2.18v8.12Z"></path><path d="M110.1,39.94v-6.53h-1.21v-1.59h1.21v-.69c0-.91,.26-1.62,.78-2.12,.52-.5,1.26-.75,2.2-.75,.3,0,.67,.05,1.1,.15l-.02,1.68c-.18-.05-.4-.07-.66-.07-.82,0-1.22,.38-1.22,1.15v.65h1.62v1.59h-1.62v6.53h-2.18Z"></path><path d="M115.01,29.71c0-.33,.11-.59,.33-.8,.22-.21,.51-.32,.89-.32s.67,.11,.89,.32c.22,.21,.33,.48,.33,.8s-.11,.6-.33,.81c-.22,.21-.52,.32-.88,.32s-.66-.11-.88-.32c-.22-.21-.33-.48-.33-.81m2.31,10.23h-2.18v-8.12h2.18v8.12Z"></path><path d="M122.48,38.34c.4,0,.73-.11,.98-.33,.25-.22,.38-.51,.39-.88h2.03c0,.55-.15,1.06-.45,1.51-.3,.46-.7,.81-1.21,1.07-.51,.25-1.08,.38-1.7,.38-1.16,0-2.08-.37-2.75-1.11-.67-.74-1.01-1.76-1.01-3.06v-.14c0-1.25,.33-2.25,1-3,.67-.75,1.58-1.12,2.74-1.12,1.02,0,1.83,.29,2.44,.87,.61,.58,.93,1.35,.93,2.31h-2.03c-.01-.42-.14-.77-.39-1.03s-.58-.4-.99-.4c-.51,0-.89,.18-1.14,.55-.26,.37-.39,.97-.39,1.79v.22c0,.84,.13,1.44,.38,1.81,.25,.37,.64,.55,1.16,.55"></path><path d="M131.83,39.94c-.1-.2-.17-.44-.22-.73-.53,.59-1.21,.88-2.05,.88-.8,0-1.45-.23-1.98-.69-.52-.46-.79-1.04-.79-1.74,0-.86,.32-1.52,.96-1.98s1.56-.69,2.77-.7h1v-.47c0-.38-.1-.68-.29-.9-.19-.23-.5-.34-.91-.34-.36,0-.65,.09-.86,.26-.21,.18-.31,.42-.31,.72h-2.17c0-.47,.15-.91,.44-1.31,.29-.4,.7-.72,1.23-.94,.53-.23,1.13-.34,1.79-.34,1,0,1.8,.25,2.38,.76,.59,.5,.88,1.21,.88,2.12v3.52c0,.77,.11,1.35,.32,1.75v.13h-2.19Zm-1.79-1.51c.32,0,.62-.07,.89-.21,.27-.14,.47-.33,.6-.57v-1.4h-.81c-1.09,0-1.67,.38-1.74,1.13v.13c0,.27,.09,.49,.28,.67,.19,.17,.45,.26,.78,.26"></path><path d="M135.02,35.82c0-1.27,.28-2.28,.85-3.03,.57-.75,1.35-1.13,2.33-1.13,.79,0,1.44,.29,1.96,.89v-4.14h2.18v11.53h-1.96l-.1-.86c-.54,.67-1.24,1.01-2.09,1.01-.96,0-1.72-.38-2.3-1.13s-.87-1.8-.87-3.14m2.17,.16c0,.76,.13,1.35,.4,1.75,.27,.41,.65,.61,1.16,.61,.67,0,1.14-.28,1.42-.85v-3.21c-.27-.57-.74-.85-1.4-.85-1.05,0-1.57,.85-1.57,2.55"></path><path d="M143.69,35.8c0-.81,.15-1.52,.46-2.16,.31-.63,.76-1.12,1.34-1.46,.58-.35,1.26-.52,2.03-.52,1.1,0,1.99,.34,2.68,1.01,.69,.67,1.08,1.58,1.16,2.73v.56c.01,1.25-.33,2.25-1.03,3-.7,.75-1.63,1.13-2.8,1.13s-2.11-.38-2.8-1.13c-.7-.75-1.05-1.77-1.05-3.06v-.1Zm2.17,.15c0,.77,.14,1.36,.44,1.77,.29,.41,.71,.61,1.25,.61s.94-.2,1.23-.61c.29-.4,.44-1.05,.44-1.94,0-.76-.15-1.34-.44-1.76-.3-.42-.71-.62-1.25-.62s-.94,.21-1.23,.62c-.29,.41-.44,1.05-.44,1.92"></path><g><g><path class="cls-5" d="M28.03,42.39c.56-.95,1.12-1.92,1.66-2.88,.1-.16,.16-.2,.33-.08,.3,.2,.62,.28,.99,.29,.41,.02,.76,.15,1.03,.46,.21,.25,.44,.46,.74,.61,.1,.05,.13,.1,.07,.2-.64,1.12-1.3,2.23-1.94,3.35l-.03,.02c-.21-.51-.41-1.03-.62-1.53-.15-.39-.3-.48-.71-.41-.53,.08-1.07,.17-1.66,.25,.05-.12,.1-.2,.15-.28m10.07,.72c-.39-.69-.79-1.38-1.2-2.07-.07-.12-.08-.2,.07-.26,.28-.13,.51-.36,.71-.59,.28-.31,.62-.44,1.03-.46,.38,0,.74-.11,1.05-.33,.11-.06,.16-.06,.23,.05,.61,1.07,1.21,2.12,1.86,3.22-.59-.1-1.15-.16-1.72-.26-.35-.07-.53,.03-.66,.36-.18,.46-.36,.94-.54,1.4-.02,.07-.02,.15-.1,.2-.25-.41-.48-.84-.72-1.25m-5.37-3.56c-.46-.49-1-.74-1.66-.76-.39,0-.69-.18-.8-.57-.02-.07-.05-.13-.07-.2-.16-.67-.57-1.13-1.17-1.48-.56-.33-.56-.44-.48-1.12,.08-.64-.02-1.23-.39-1.76-.03-.03-.05-.05-.07-.08-.28-.38-.26-.76,0-1.13,.1-.11,.18-.25,.25-.38,.17-.29,.26-.62,.23-.97,.03-.28-.03-.54-.05-.79-.03-.31,.08-.54,.33-.71,.1-.07,.18-.13,.28-.18,.54-.29,.87-.74,1.05-1.31,.23-.74,.33-.82,1.1-.87,.56-.05,1.02-.26,1.4-.67,.07-.07,.13-.15,.2-.21,.31-.33,.58-.39,.99-.21,.69,.3,1.36,.31,2.05,0,.44-.18,.71-.1,1.05,.3,.31,.36,.69,.66,1.18,.76,.23,.05,.48,.07,.7,.1,.3,.03,.49,.18,.59,.46,.07,.21,.15,.44,.23,.66,.15,.41,.43,.72,.79,.95,.07,.05,.12,.08,.18,.11,.56,.33,.64,.53,.54,1.17-.1,.62,0,1.2,.38,1.72,.03,.03,.05,.08,.08,.11,.26,.36,.28,.76,0,1.12-.43,.57-.57,1.2-.44,1.9,.08,.51-.08,.87-.56,1.12-.56,.28-.92,.72-1.08,1.33,0,.03,0,.05-.02,.08-.18,.58-.3,.74-1,.79-.56,.03-1.09,.21-1.45,.67-.41,.53-.85,.64-1.46,.35-.51-.26-1.04-.2-1.56,0-.31,.12-.5,.19-.66,.19-.23,0-.38-.14-.69-.48m2.78-14.27c-.43,.18-.85,.21-1.28,0-.25-.11-.53-.18-.82-.16-.3-.03-.57,.1-.85,.28-.18,.13-.35,.28-.49,.46-.26,.31-.59,.46-1,.48-.79,.03-1.41,.36-1.64,1.15-.16,.62-.49,1.05-1.05,1.36-.64,.36-.89,.97-.76,1.67,.1,.56,.03,1.07-.34,1.51-.02,0-.02,.02-.02,.02-.36,.61-.41,1.21-.07,1.84,.07,.12,.13,.23,.21,.33,.25,.34,.29,.72,.23,1.15-.16,.92,.12,1.53,.92,2,.17,.1,.31,.2,.44,.31,.3,.3,.36,.62,.15,.99-.67,1.18-1.36,2.38-2.05,3.56-.2,.33-.2,.67,.03,1,.23,.31,.54,.43,.94,.36,.43-.07,.85-.11,1.25-.16,.15-.03,.18,.02,.23,.13,.16,.43,.33,.85,.51,1.28,.26,.59,1.02,.74,1.48,.28,.1-.12,.16-.25,.25-.38,.72-1.23,1.43-2.46,2.13-3.69,.07-.08,.12-.16,.21-.21,.46-.2,.92-.28,1.4-.05,.15,.07,.26,.15,.34,.3,.72,1.26,1.46,2.51,2.18,3.78,.2,.35,.48,.56,.87,.53,.41-.03,.69-.26,.84-.66,.15-.39,.31-.79,.46-1.18,.05-.11,.1-.15,.21-.13,.43,.07,.84,.1,1.25,.18,.43,.08,.77-.02,1-.36,.23-.35,.21-.69,0-1.05-.71-1.22-1.41-2.45-2.12-3.66-.05-.1-.11-.2-.07-.31,.1-.26,.2-.51,.44-.66,.12-.08,.25-.15,.36-.23,.67-.43,1.02-1,.87-1.81-.1-.56,0-1.03,.33-1.49,.46-.66,.43-1.35-.02-2.02-.03-.05-.07-.08-.1-.13-.26-.34-.33-.72-.25-1.15,.15-.77-.03-1.46-.74-1.87-.56-.33-.89-.75-1.07-1.4-.2-.67-.71-1.07-1.4-1.1-.61-.03-1.05-.25-1.46-.71-.33-.37-.71-.55-1.14-.55-.26,0-.53,.06-.82,.19"></path><g class="cls-4"><rect class="cls-5" x="26.83" y="25.08" width="16.11" height="20.5"></rect></g></g><g><path class="cls-5" d="M34.77,37.4c-2.45-.07-4.29-2.09-4.25-4.39-.03-2.2,1.76-4.39,4.45-4.35,2.55,.05,4.3,2.17,4.29,4.4-.02,2.26-1.86,4.34-4.37,4.34-.04,0-.08,0-.12,0m-5.19-4.39c-.05,2.78,2.22,5.31,5.27,5.32,3.02,0,5.3-2.5,5.32-5.27,.03-2.73-2.14-5.34-5.29-5.34s-5.35,2.61-5.3,5.29"></path><g class="cls-3"><rect class="cls-5" x="29.53" y="27.73" width="10.68" height="10.61"></rect></g></g><g><path class="cls-5" d="M36.21,31.5c-.43,.66-.87,1.3-1.3,1.95-.1,.15-.17,.15-.28,.02-.21-.25-.46-.48-.69-.71-.1-.1-.21-.18-.35-.18-.23,0-.36,.08-.48,.28-.1,.2-.07,.38,.08,.52,.44,.46,.87,.9,1.33,1.33,.23,.22,.53,.17,.71-.1,.59-.87,1.17-1.74,1.74-2.61,.08-.11,.11-.25,.08-.38-.05-.18-.16-.31-.35-.35-.04-.01-.09-.02-.13-.02-.15,0-.28,.07-.38,.23"></path><g class="cls-2"><rect class="cls-5" x="33.03" y="31.28" width="4.07" height="3.66"></rect></g></g></g></svg>