<svg xmlns="http://www.w3.org/2000/svg" xmlns:xlink="http://www.w3.org/1999/xlink" id="Layer_1" viewBox="0 0 229 68.5"><defs><style>.cls-1{fill:#fff;}.cls-2{clip-path:url(#clippath);}.cls-3{fill:#d0f722;}</style><clipPath id="clippath"><path class="cls-3" d="M26.08,29.88c-1.87,1.26-2.72,3.56-2.14,5.76,.96,3.62,5.41,5.08,8.33,2.74,.65-.52,1.19-1.16,1.79-1.74,.11-.11,.04-.17-.03-.25-.49-.49-.97-.97-1.45-1.46-.11-.12-.18-.11-.29,0-.43,.44-.86,.87-1.29,1.3-.88,.86-2.16,1.07-3.24,.52-1.07-.54-1.68-1.72-1.5-2.92,.2-1.35,1.38-2.37,2.74-2.38,.89,0,1.59,.37,2.19,.99,.83,.86,1.68,1.7,2.53,2.54,.97,.97,1.94,1.93,2.9,2.9,1.26,1.27,2.78,1.81,4.54,1.57,2.93-.4,4.95-3.19,4.44-6.12-.44-2.52-2.62-4.36-5.67-4.35-.73,.01-1.83,.38-2.78,1.14-.65,.52-1.18,1.15-1.78,1.73-.11,.1-.05,.17,.03,.25,.48,.48,.97,.96,1.44,1.45,.12,.12,.19,.13,.32,0,.48-.48,.94-.99,1.45-1.43,.86-.76,2.16-.89,3.14-.34,1.08,.61,1.66,1.78,1.43,2.96-.22,1.09-.86,1.84-1.92,2.18-1.04,.33-2.01,.1-2.79-.67-1.91-1.88-3.8-3.78-5.68-5.68-1.03-1.04-2.4-1.58-3.78-1.58-1.01,0-2.03,.29-2.92,.89"></path></clipPath></defs><path class="cls-1" d="M194.75,68.5H34.25C15.33,68.5,0,53.17,0,34.25S15.33,0,34.25,0H194.75c18.92,0,34.25,15.33,34.25,34.25s-15.33,34.25-34.25,34.25"></path><path d="M59,34.25c0,12.98-10.52,23.5-23.5,23.5s-23.5-10.52-23.5-23.5S22.52,10.75,35.5,10.75s23.5,10.52,23.5,23.5"></path><path d="M82.2,37.69h-3.95l-.75,2.25h-2.4l4.07-10.93h2.09l4.09,10.93h-2.39l-.76-2.25Zm-3.34-1.82h2.73l-1.37-4.09-1.36,4.09Z"></path><path d="M89.61,38.34c.4,0,.73-.11,.98-.33,.25-.22,.38-.51,.39-.88h2.03c0,.55-.15,1.06-.45,1.51-.3,.46-.7,.81-1.21,1.07-.51,.25-1.08,.38-1.7,.38-1.16,0-2.08-.37-2.75-1.11-.67-.74-1.01-1.76-1.01-3.06v-.14c0-1.25,.33-2.25,1-3,.67-.75,1.58-1.12,2.74-1.12,1.02,0,1.83,.29,2.44,.87,.61,.58,.93,1.35,.93,2.31h-2.03c-.01-.42-.14-.77-.39-1.03s-.58-.4-.99-.4c-.51,0-.89,.18-1.14,.55-.26,.37-.39,.97-.39,1.79v.22c0,.84,.13,1.44,.38,1.81,.25,.37,.64,.55,1.16,.55"></path><path d="M97.99,40.09c-1.19,0-2.16-.36-2.91-1.1-.75-.73-1.12-1.7-1.12-2.92v-.21c0-.82,.16-1.55,.47-2.19,.32-.64,.76-1.14,1.34-1.49,.58-.35,1.24-.52,1.98-.52,1.11,0,1.99,.35,2.62,1.05,.64,.7,.96,1.69,.96,2.98v.89h-5.17c.07,.53,.28,.96,.63,1.28,.35,.32,.8,.48,1.34,.48,.84,0,1.49-.3,1.96-.91l1.07,1.19c-.33,.46-.77,.82-1.32,1.08-.56,.26-1.17,.39-1.85,.39m-.25-6.68c-.43,0-.78,.15-1.05,.44-.27,.29-.44,.71-.51,1.25h3.02v-.17c0-.48-.14-.86-.39-1.12-.25-.26-.61-.4-1.07-.4"></path><path d="M106.96,37.69c0-.26-.13-.47-.39-.63-.26-.15-.68-.29-1.27-.41-1.93-.4-2.9-1.23-2.9-2.46,0-.72,.3-1.32,.9-1.81,.6-.48,1.38-.72,2.35-.72,1.03,0,1.86,.24,2.47,.73,.62,.49,.93,1.12,.93,1.89h-2.17c0-.31-.1-.57-.3-.77-.2-.2-.51-.3-.94-.3-.36,0-.65,.08-.85,.25-.2,.17-.3,.38-.3,.63,0,.24,.11,.43,.34,.58,.23,.15,.61,.28,1.15,.38,.54,.11,1,.23,1.37,.36,1.15,.42,1.72,1.15,1.72,2.18,0,.74-.32,1.34-.95,1.8-.64,.46-1.46,.69-2.46,.69-.68,0-1.28-.12-1.81-.36-.53-.24-.94-.58-1.24-1-.3-.42-.45-.88-.45-1.37h2.06c.02,.39,.16,.68,.43,.89,.26,.21,.62,.31,1.07,.31,.42,0,.73-.08,.94-.24,.21-.16,.32-.36,.32-.62"></path><path d="M114.86,37.69c0-.26-.13-.47-.39-.63-.26-.15-.68-.29-1.27-.41-1.93-.4-2.9-1.23-2.9-2.46,0-.72,.3-1.32,.9-1.81,.6-.48,1.38-.72,2.35-.72,1.03,0,1.86,.24,2.47,.73,.62,.49,.93,1.12,.93,1.89h-2.17c0-.31-.1-.57-.3-.77-.2-.2-.51-.3-.94-.3-.36,0-.65,.08-.85,.25-.2,.17-.3,.38-.3,.63,0,.24,.11,.43,.34,.58,.23,.15,.61,.28,1.15,.38,.54,.11,1,.23,1.37,.36,1.15,.42,1.72,1.15,1.72,2.18,0,.74-.32,1.34-.95,1.8-.64,.46-1.46,.69-2.46,.69-.68,0-1.28-.12-1.81-.36-.53-.24-.94-.58-1.24-1-.3-.42-.45-.88-.45-1.37h2.06c.02,.39,.16,.68,.43,.89,.26,.21,.62,.31,1.07,.31,.42,0,.73-.08,.94-.24,.21-.16,.32-.36,.32-.62"></path><path d="M118.03,35.8c0-.81,.15-1.52,.47-2.16,.31-.63,.76-1.12,1.34-1.46,.58-.35,1.26-.52,2.03-.52,1.1,0,1.99,.34,2.68,1.01,.69,.67,1.08,1.58,1.16,2.73v.56c.01,1.25-.33,2.25-1.03,3-.69,.75-1.63,1.13-2.8,1.13s-2.11-.38-2.81-1.13c-.7-.75-1.05-1.77-1.05-3.06v-.1Zm2.17,.15c0,.77,.14,1.36,.44,1.77,.29,.41,.71,.61,1.25,.61s.94-.2,1.23-.61c.29-.4,.44-1.05,.44-1.94,0-.76-.15-1.34-.44-1.76-.29-.42-.71-.62-1.25-.62s-.94,.21-1.23,.62c-.29,.41-.44,1.05-.44,1.92"></path><polygon points="135.08 37.23 137.56 29.01 140.06 29.01 136.26 39.94 133.91 39.94 130.11 29.01 132.61 29.01 135.08 37.23"></polygon><path d="M140.93,29.71c0-.32,.11-.59,.33-.8,.22-.21,.51-.31,.89-.31s.67,.1,.89,.31c.22,.21,.33,.48,.33,.8s-.11,.6-.33,.81c-.22,.21-.52,.31-.88,.31s-.66-.1-.88-.31c-.22-.21-.33-.48-.33-.81m2.3,10.23h-2.18v-8.12h2.18v8.12Z"></path><path d="M147.62,29.82v2h1.39v1.59h-1.39v4.06c0,.3,.06,.51,.17,.64,.12,.13,.34,.19,.66,.19,.24,0,.45-.02,.64-.05v1.64c-.43,.13-.86,.19-1.31,.19-1.52,0-2.3-.77-2.33-2.31v-4.38h-1.19v-1.59h1.19v-2h2.17Z"></path><path d="M154.93,39.94c-.1-.2-.17-.44-.22-.73-.53,.59-1.21,.88-2.05,.88-.8,0-1.46-.23-1.98-.69-.52-.46-.79-1.04-.79-1.74,0-.86,.32-1.52,.96-1.98s1.56-.69,2.77-.7h1v-.47c0-.38-.1-.68-.29-.9-.19-.23-.5-.34-.91-.34-.36,0-.65,.09-.86,.26-.21,.18-.31,.42-.31,.72h-2.17c0-.47,.15-.91,.44-1.31,.29-.4,.7-.72,1.23-.94,.53-.23,1.13-.34,1.79-.34,1,0,1.8,.25,2.38,.76,.59,.5,.88,1.21,.88,2.12v3.52c0,.77,.11,1.35,.32,1.75v.13h-2.19Zm-1.79-1.51c.32,0,.62-.07,.89-.21,.27-.14,.47-.33,.6-.57v-1.4h-.81c-1.09,0-1.67,.38-1.74,1.13v.13c0,.27,.09,.49,.28,.67,.19,.17,.45,.26,.78,.26"></path><rect x="158.58" y="28.41" width="2.18" height="11.53"></rect><path d="M164.89,39.94h-2.17v-8.12h2.17v8.12Zm-.64-11.42h2.36l-2.08,2.33h-1.76l1.48-2.33Z"></path><path d="M170.13,38.34c.4,0,.73-.11,.98-.33,.25-.22,.38-.51,.39-.88h2.03c0,.55-.15,1.06-.45,1.51-.3,.46-.7,.81-1.21,1.07-.51,.25-1.08,.38-1.7,.38-1.16,0-2.08-.37-2.75-1.11-.67-.74-1.01-1.76-1.01-3.06v-.14c0-1.25,.33-2.25,1-3,.66-.75,1.58-1.12,2.74-1.12,1.02,0,1.83,.29,2.44,.87,.61,.58,.93,1.35,.93,2.31h-2.03c-.01-.42-.14-.77-.39-1.03s-.58-.4-.99-.4c-.51,0-.89,.18-1.14,.55-.26,.37-.39,.97-.39,1.79v.22c0,.84,.13,1.44,.38,1.81,.25,.37,.64,.55,1.16,.55"></path><path d="M174.76,29.71c0-.32,.11-.59,.33-.8,.22-.21,.51-.31,.89-.31s.67,.1,.89,.31c.22,.21,.33,.48,.33,.8s-.11,.6-.33,.81c-.22,.21-.52,.31-.88,.31s-.66-.1-.88-.31c-.22-.21-.33-.48-.33-.81m2.3,10.23h-2.18v-8.12h2.18v8.12Z"></path><path d="M178.51,35.8c0-.81,.15-1.52,.47-2.16,.31-.63,.76-1.12,1.34-1.46,.58-.35,1.26-.52,2.03-.52,1.1,0,1.99,.34,2.68,1.01,.69,.67,1.08,1.58,1.16,2.73v.56c.01,1.25-.33,2.25-1.03,3-.7,.75-1.63,1.13-2.8,1.13s-2.11-.38-2.8-1.13c-.7-.75-1.05-1.77-1.05-3.06v-.1Zm2.17,.15c0,.77,.14,1.36,.44,1.77,.29,.41,.71,.61,1.25,.61s.94-.2,1.23-.61c.29-.4,.44-1.05,.44-1.94,0-.76-.15-1.34-.44-1.76-.29-.42-.71-.62-1.25-.62s-.94,.21-1.23,.62c-.29,.41-.44,1.05-.44,1.92"></path><g><path class="cls-3" d="M26.08,29.88c-1.87,1.26-2.72,3.56-2.14,5.76,.96,3.62,5.41,5.08,8.33,2.74,.65-.52,1.19-1.16,1.79-1.74,.11-.11,.04-.17-.03-.25-.49-.49-.97-.97-1.45-1.46-.11-.12-.18-.11-.29,0-.43,.44-.86,.87-1.29,1.3-.88,.86-2.16,1.07-3.24,.52-1.07-.54-1.68-1.72-1.5-2.92,.2-1.35,1.38-2.37,2.74-2.38,.89,0,1.59,.37,2.19,.99,.83,.86,1.68,1.7,2.53,2.54,.97,.97,1.94,1.93,2.9,2.9,1.26,1.27,2.78,1.81,4.54,1.57,2.93-.4,4.95-3.19,4.44-6.12-.44-2.52-2.62-4.36-5.67-4.35-.73,.01-1.83,.38-2.78,1.14-.65,.52-1.18,1.15-1.78,1.73-.11,.1-.05,.17,.03,.25,.48,.48,.97,.96,1.44,1.45,.12,.12,.19,.13,.32,0,.48-.48,.94-.99,1.45-1.43,.86-.76,2.16-.89,3.14-.34,1.08,.61,1.66,1.78,1.43,2.96-.22,1.09-.86,1.84-1.92,2.18-1.04,.33-2.01,.1-2.79-.67-1.91-1.88-3.8-3.78-5.68-5.68-1.03-1.04-2.4-1.58-3.78-1.58-1.01,0-2.03,.29-2.92,.89"></path><g class="cls-2"><rect class="cls-3" x="23.35" y="28.99" width="22.74" height="11.74"></rect></g></g></svg>