<svg xmlns="http://www.w3.org/2000/svg" xmlns:xlink="http://www.w3.org/1999/xlink" id="Layer_1" viewBox="0 0 206 68.5"><defs><style>.cls-1{fill:#fff;}.cls-2{clip-path:url(#clippath-2);}.cls-3{clip-path:url(#clippath-1);}.cls-4{clip-path:url(#clippath-4);}.cls-5{clip-path:url(#clippath);}.cls-6{clip-path:url(#clippath-3);}.cls-7{clip-path:url(#clippath-5);}.cls-8{fill:#d0f722;}</style><clipPath id="clippath"><path class="cls-8" d="M33.22,34.87c.19,0,.25,.06,.25,.25v8c0,.17-.05,.25-.25,.25-1.03-.02-2.08-.02-3.11,0-.19,0-.24-.06-.24-.24v-8c0-.18,.09-.27,.27-.27,.69,0,1.37,0,2.05,0,.34,0,.68,0,1.03,0m1.51,8.26c.02-.63,0-1.25,0-1.89v-6.1c0-.18,.09-.27,.28-.27h.63c.19,0,.29,.09,.29,.27v7.99c0,.21-.06,.27-.27,.25-.22-.02-.44-.02-.67,0-.02,0-.04,0-.06,0-.16,0-.21-.07-.21-.26m5.8-8.27c.19,0,.25,.06,.25,.25v7.99c.02,.21-.05,.27-.25,.27-1.03-.02-2.06,0-3.09,0-.19,0-.25-.05-.25-.24v-8.03c0-.19,.06-.24,.24-.24,.69,0,1.38,0,2.07,0,.35,0,.69,0,1.03,0m-11.85-1.46c.02-.25,0-.51,0-.76-.02-.14,.03-.21,.19-.21h4.42c.14,0,.19,.05,.19,.19v.81c0,.16-.06,.19-.21,.19h-4.37c-.17,0-.22-.06-.22-.22m6.07,.08v-.44c0-.4,.2-.61,.6-.62h.43c.11,0,.16,.05,.16,.17v.87c0,.1-.03,.16-.14,.16h-.9c-.11,0-.14-.05-.14-.14m2.72,.13c-.18,0-.27-.09-.27-.27v-.73c0-.14,.05-.19,.19-.19h4.42c.16,0,.19,.06,.19,.21v.79c0,.16-.06,.21-.21,.21h-2.2c-.71,0-1.43,0-2.12-.01m-5.15-3.65c0-.62,.52-1.14,1.14-1.16,.71-.02,1.22,.47,1.25,1.22,.02,.32,0,.65,0,.97,.02,.13-.05,.17-.17,.17h-1.09c-.63-.02-1.14-.56-1.12-1.2m3.61,1.08c.02-.41-.03-.82,.03-1.24,.11-.62,.6-1.01,1.25-1,.57,.01,1.08,.49,1.12,1.08,.05,.6-.35,1.16-.93,1.27-.13,.02-.26,.02-.39,.01-.1,0-.2,0-.31,0v.02h-.62c-.09,0-.16-.03-.16-.14m-.49-2.79c-.09,.1-.14,.1-.24,0-.6-.59-1.33-.79-2.15-.67-1.24,.19-2.16,1.44-2,2.68,.05,.27,.1,.54,.22,.78,.06,.13,.03,.14-.09,.14h-3.53c-.14,0-.25,0-.25,.19v3.31c0,.16,.06,.19,.21,.19h.71c.2,0,.3,.1,.3,.32v9.11c0,.1,.01,.21,.01,.3,4.47,0,8.94,0,13.38,.03,.02-.09,.02-.17,.02-.27v-9.17c0-.19,.1-.29,.28-.29,.22,0,.46-.01,.68,0,.21,.02,.25-.06,.25-.25v-3.15c0-.2-.1-.3-.28-.3h-3.45c-.16,0-.21-.03-.13-.19,.22-.47,.3-.97,.17-1.49-.21-.94-.78-1.57-1.68-1.85-.26-.08-.52-.12-.77-.12-.61,0-1.16,.24-1.66,.71"></path></clipPath><clipPath id="clippath-1"><path class="cls-8" d="M31.68,24.63c-.29,.16-.57,.3-.85,.46-.1,.05-.11,.11-.06,.21,.28,.51,.57,1.03,.86,1.55,.05,.1,.11,.11,.21,.06,.28-.16,.57-.3,.86-.46,.03-.02,.08-.11,.08-.11v-.05c-.3-.54-.59-1.08-.89-1.62-.03-.06-.06-.08-.1-.08-.03,0-.06,.01-.09,.03"></path></clipPath><clipPath id="clippath-2"><path class="cls-8" d="M38.8,24.73c-.27,.51-.55,1.03-.84,1.54-.06,.11-.05,.16,.06,.22,.27,.13,.52,.29,.79,.43,.03,.02,.11,.05,.11,.05,.08,0,.1-.06,.13-.09,.27-.51,.55-1.03,.84-1.54,.06-.11,.05-.16-.06-.22-.27-.14-.54-.29-.81-.44-.04-.02-.07-.03-.1-.03-.05,0-.08,.03-.12,.09"></path></clipPath><clipPath id="clippath-3"><path class="cls-8" d="M42.14,26.56c-.3,.3-.59,.6-.89,.89-.08,.08-.08,.14,0,.22,.22,.22,.44,.44,.67,.67,.09,.1,.16,.08,.24,0,.28-.3,.59-.59,.87-.87,.03-.03,.08-.13,.08-.13,0-.02-.03-.05-.03-.06-.25-.25-.49-.49-.75-.74-.03-.02-.06-.03-.08-.03-.04,0-.07,.03-.11,.07"></path></clipPath><clipPath id="clippath-4"><path class="cls-8" d="M28.37,26.56c-.22,.22-.44,.44-.67,.67-.09,.1-.09,.16,0,.24,.27,.27,.56,.55,.83,.84,.05,.05,.13,.09,.13,.09,.06,0,.1-.03,.13-.06,.22-.22,.44-.44,.68-.67,.08-.09,.1-.16,0-.24-.3-.29-.59-.59-.87-.87-.04-.04-.08-.06-.11-.06s-.07,.02-.11,.06"></path></clipPath><clipPath id="clippath-5"><path class="cls-8" d="M34.87,23.87c-.11,0-.16,.05-.16,.16v1.22c0,.11,.03,.17,.16,.17h.94c.11,0,.16-.05,.16-.16v-1.24c0-.11-.05-.16-.16-.16h-.94Z"></path></clipPath></defs><path class="cls-1" d="M171.75,68.5H34.25C15.33,68.5,0,53.17,0,34.25S15.33,0,34.25,0H171.75c18.92,0,34.25,15.33,34.25,34.25s-15.33,34.25-34.25,34.25"></path><path d="M59,34.25c0,12.98-10.52,23.5-23.5,23.5s-23.5-10.52-23.5-23.5S22.52,10.75,35.5,10.75s23.5,10.52,23.5,23.5"></path><g><g><path class="cls-8" d="M33.22,34.87c.19,0,.25,.06,.25,.25v8c0,.17-.05,.25-.25,.25-1.03-.02-2.08-.02-3.11,0-.19,0-.24-.06-.24-.24v-8c0-.18,.09-.27,.27-.27,.69,0,1.37,0,2.05,0,.34,0,.68,0,1.03,0m1.51,8.26c.02-.63,0-1.25,0-1.89v-6.1c0-.18,.09-.27,.28-.27h.63c.19,0,.29,.09,.29,.27v7.99c0,.21-.06,.27-.27,.25-.22-.02-.44-.02-.67,0-.02,0-.04,0-.06,0-.16,0-.21-.07-.21-.26m5.8-8.27c.19,0,.25,.06,.25,.25v7.99c.02,.21-.05,.27-.25,.27-1.03-.02-2.06,0-3.09,0-.19,0-.25-.05-.25-.24v-8.03c0-.19,.06-.24,.24-.24,.69,0,1.38,0,2.07,0,.35,0,.69,0,1.03,0m-11.85-1.46c.02-.25,0-.51,0-.76-.02-.14,.03-.21,.19-.21h4.42c.14,0,.19,.05,.19,.19v.81c0,.16-.06,.19-.21,.19h-4.37c-.17,0-.22-.06-.22-.22m6.07,.08v-.44c0-.4,.2-.61,.6-.62h.43c.11,0,.16,.05,.16,.17v.87c0,.1-.03,.16-.14,.16h-.9c-.11,0-.14-.05-.14-.14m2.72,.13c-.18,0-.27-.09-.27-.27v-.73c0-.14,.05-.19,.19-.19h4.42c.16,0,.19,.06,.19,.21v.79c0,.16-.06,.21-.21,.21h-2.2c-.71,0-1.43,0-2.12-.01m-5.15-3.65c0-.62,.52-1.14,1.14-1.16,.71-.02,1.22,.47,1.25,1.22,.02,.32,0,.65,0,.97,.02,.13-.05,.17-.17,.17h-1.09c-.63-.02-1.14-.56-1.12-1.2m3.61,1.08c.02-.41-.03-.82,.03-1.24,.11-.62,.6-1.01,1.25-1,.57,.01,1.08,.49,1.12,1.08,.05,.6-.35,1.16-.93,1.27-.13,.02-.26,.02-.39,.01-.1,0-.2,0-.31,0v.02h-.62c-.09,0-.16-.03-.16-.14m-.49-2.79c-.09,.1-.14,.1-.24,0-.6-.59-1.33-.79-2.15-.67-1.24,.19-2.16,1.44-2,2.68,.05,.27,.1,.54,.22,.78,.06,.13,.03,.14-.09,.14h-3.53c-.14,0-.25,0-.25,.19v3.31c0,.16,.06,.19,.21,.19h.71c.2,0,.3,.1,.3,.32v9.11c0,.1,.01,.21,.01,.3,4.47,0,8.94,0,13.38,.03,.02-.09,.02-.17,.02-.27v-9.17c0-.19,.1-.29,.28-.29,.22,0,.46-.01,.68,0,.21,.02,.25-.06,.25-.25v-3.15c0-.2-.1-.3-.28-.3h-3.45c-.16,0-.21-.03-.13-.19,.22-.47,.3-.97,.17-1.49-.21-.94-.78-1.57-1.68-1.85-.26-.08-.52-.12-.77-.12-.61,0-1.16,.24-1.66,.71"></path><g class="cls-5"><rect class="cls-8" x="27.39" y="27.45" width="15.85" height="17.18"></rect></g></g><g><path class="cls-8" d="M31.68,24.63c-.29,.16-.57,.3-.85,.46-.1,.05-.11,.11-.06,.21,.28,.51,.57,1.03,.86,1.55,.05,.1,.11,.11,.21,.06,.28-.16,.57-.3,.86-.46,.03-.02,.08-.11,.08-.11v-.05c-.3-.54-.59-1.08-.89-1.62-.03-.06-.06-.08-.1-.08-.03,0-.06,.01-.09,.03"></path><g class="cls-3"><rect class="cls-8" x="30.72" y="24.6" width="2.05" height="2.36"></rect></g></g><g><path class="cls-8" d="M38.8,24.73c-.27,.51-.55,1.03-.84,1.54-.06,.11-.05,.16,.06,.22,.27,.13,.52,.29,.79,.43,.03,.02,.11,.05,.11,.05,.08,0,.1-.06,.13-.09,.27-.51,.55-1.03,.84-1.54,.06-.11,.05-.16-.06-.22-.27-.14-.54-.29-.81-.44-.04-.02-.07-.03-.1-.03-.05,0-.08,.03-.12,.09"></path><g class="cls-2"><rect class="cls-8" x="37.9" y="24.63" width="2.06" height="2.33"></rect></g></g><g><path class="cls-8" d="M42.14,26.56c-.3,.3-.59,.6-.89,.89-.08,.08-.08,.14,0,.22,.22,.22,.44,.44,.67,.67,.09,.1,.16,.08,.24,0,.28-.3,.59-.59,.87-.87,.03-.03,.08-.13,.08-.13,0-.02-.03-.05-.03-.06-.25-.25-.49-.49-.75-.74-.03-.02-.06-.03-.08-.03-.04,0-.07,.03-.11,.07"></path><g class="cls-6"><rect class="cls-8" x="41.18" y="26.5" width="1.93" height="1.94"></rect></g></g><g><path class="cls-8" d="M28.37,26.56c-.22,.22-.44,.44-.67,.67-.09,.1-.09,.16,0,.24,.27,.27,.56,.55,.83,.84,.05,.05,.13,.09,.13,.09,.06,0,.1-.03,.13-.06,.22-.22,.44-.44,.68-.67,.08-.09,.1-.16,0-.24-.3-.29-.59-.59-.87-.87-.04-.04-.08-.06-.11-.06s-.07,.02-.11,.06"></path><g class="cls-4"><rect class="cls-8" x="27.61" y="26.51" width="1.95" height="1.9"></rect></g></g><g><path class="cls-8" d="M34.87,23.87c-.11,0-.16,.05-.16,.16v1.22c0,.11,.03,.17,.16,.17h.94c.11,0,.16-.05,.16-.16v-1.24c0-.11-.05-.16-.16-.16h-.94Z"></path><g class="cls-7"><rect class="cls-8" x="34.71" y="23.87" width="1.25" height="1.55"></rect></g></g></g><path d="M76.02,39.94v-10.93h3.83c1.33,0,2.33,.25,3.02,.76,.69,.51,1.03,1.25,1.03,2.23,0,.54-.14,1.01-.41,1.42-.28,.41-.66,.71-1.15,.9,.56,.14,1,.42,1.32,.85,.32,.43,.49,.95,.49,1.56,0,1.05-.34,1.85-1.01,2.39-.67,.54-1.63,.82-2.87,.83h-4.25Zm2.25-6.35h1.67c1.14-.02,1.7-.47,1.7-1.36,0-.5-.14-.85-.43-1.07-.29-.22-.74-.33-1.36-.33h-1.58v2.76Zm0,1.59v2.95h1.93c.53,0,.95-.13,1.24-.38,.3-.25,.45-.6,.45-1.05,0-1-.52-1.51-1.55-1.52h-2.06Z"></path><path d="M85.36,35.8c0-.81,.15-1.52,.47-2.16,.31-.63,.76-1.12,1.34-1.46,.58-.35,1.26-.52,2.03-.52,1.1,0,1.99,.34,2.68,1.01,.69,.67,1.08,1.58,1.16,2.73v.56c.01,1.25-.33,2.25-1.03,3-.69,.75-1.63,1.13-2.8,1.13s-2.11-.38-2.81-1.13c-.7-.75-1.05-1.77-1.05-3.06v-.1Zm6.71-5.3v.09h-1.73s-1.16-1.09-1.16-1.09l-1.16,1.09h-1.7v-.12l2.22-2.07h1.26l2.25,2.1Zm-4.54,5.45c0,.77,.14,1.36,.44,1.77,.29,.41,.71,.61,1.25,.61s.94-.2,1.23-.61c.29-.4,.44-1.05,.44-1.93,0-.76-.15-1.34-.44-1.76-.29-.42-.71-.62-1.25-.62s-.94,.21-1.23,.62c-.29,.41-.44,1.05-.44,1.92"></path><path d="M96.39,31.82l.07,.94c.58-.73,1.36-1.09,2.34-1.09,.86,0,1.5,.25,1.92,.76,.42,.51,.64,1.26,.65,2.27v5.25h-2.17v-5.19c0-.46-.1-.79-.3-1-.2-.21-.53-.31-1-.31-.61,0-1.07,.26-1.37,.78v5.73h-2.17v-8.12h2.04Z"></path><path d="M107.87,39.11c-.54,.65-1.28,.98-2.22,.98-.87,0-1.54-.25-1.99-.75-.46-.5-.69-1.24-.7-2.2v-5.32h2.17v5.25c0,.85,.38,1.27,1.16,1.27s1.24-.26,1.52-.77v-5.76h2.18v8.12h-2.04l-.06-.83Z"></path><path d="M116.01,37.69c0-.26-.13-.47-.39-.63-.26-.15-.68-.29-1.27-.41-1.93-.4-2.9-1.23-2.9-2.46,0-.72,.3-1.32,.9-1.81,.6-.48,1.38-.72,2.35-.72,1.03,0,1.86,.24,2.47,.73,.62,.49,.93,1.12,.93,1.89h-2.17c0-.31-.1-.57-.3-.77-.2-.2-.51-.3-.94-.3-.36,0-.65,.08-.85,.25-.2,.17-.3,.38-.3,.63,0,.24,.11,.43,.34,.58,.23,.15,.61,.28,1.15,.38,.54,.11,1,.23,1.37,.36,1.15,.42,1.72,1.15,1.72,2.18,0,.74-.32,1.34-.95,1.8-.64,.46-1.46,.69-2.46,.69-.68,0-1.28-.12-1.81-.36-.53-.24-.94-.57-1.24-1-.3-.42-.45-.88-.45-1.37h2.06c.02,.39,.16,.68,.43,.89,.26,.21,.62,.31,1.07,.31,.42,0,.73-.08,.94-.24,.21-.16,.32-.36,.32-.62"></path><polygon points="130.06 35.2 125.74 35.2 125.74 38.13 130.81 38.13 130.81 39.94 123.48 39.94 123.48 29.01 130.8 29.01 130.8 30.83 125.74 30.83 125.74 33.44 130.06 33.44 130.06 35.2"></polygon><polygon points="135.08 34.24 136.45 31.82 138.77 31.82 136.46 35.8 138.87 39.94 136.54 39.94 135.09 37.39 133.65 39.94 131.32 39.94 133.73 35.8 131.42 31.82 133.75 31.82 135.08 34.24"></polygon><path d="M142.41,29.82v2h1.39v1.59h-1.39v4.06c0,.3,.06,.51,.17,.64,.12,.13,.34,.2,.66,.2,.24,0,.45-.02,.64-.05v1.64c-.43,.13-.86,.19-1.31,.19-1.52,0-2.3-.77-2.33-2.3v-4.38h-1.19v-1.59h1.19v-2h2.17Z"></path><path d="M149.58,33.85c-.3-.04-.56-.06-.78-.06-.82,0-1.36,.28-1.61,.83v5.32h-2.17v-8.12h2.05l.06,.97c.43-.75,1.04-1.12,1.81-1.12,.24,0,.47,.03,.68,.1l-.03,2.09Z"></path><path d="M155.1,39.94c-.1-.2-.17-.44-.22-.73-.53,.59-1.21,.88-2.05,.88-.8,0-1.46-.23-1.98-.69-.52-.46-.79-1.04-.79-1.74,0-.86,.32-1.52,.96-1.98s1.56-.69,2.77-.7h1v-.47c0-.38-.1-.68-.29-.9-.19-.23-.5-.34-.91-.34-.36,0-.65,.09-.86,.26-.21,.17-.31,.42-.31,.72h-2.17c0-.47,.15-.91,.44-1.31,.29-.4,.7-.72,1.23-.94,.53-.23,1.13-.34,1.79-.34,1,0,1.8,.25,2.38,.75,.59,.5,.88,1.21,.88,2.12v3.52c0,.77,.11,1.35,.32,1.75v.13h-2.19Zm-1.79-1.51c.32,0,.62-.07,.89-.21,.27-.14,.47-.33,.6-.57v-1.4h-.81c-1.09,0-1.67,.38-1.74,1.13v.13c0,.27,.09,.49,.28,.67,.19,.17,.45,.26,.78,.26"></path><path d="M163.04,37.69c0-.26-.13-.47-.39-.63-.26-.15-.68-.29-1.27-.41-1.93-.4-2.9-1.23-2.9-2.46,0-.72,.3-1.32,.9-1.81,.6-.48,1.38-.72,2.35-.72,1.03,0,1.86,.24,2.47,.73,.62,.49,.93,1.12,.93,1.89h-2.17c0-.31-.1-.57-.3-.77-.2-.2-.51-.3-.94-.3-.37,0-.65,.08-.85,.25-.2,.17-.3,.38-.3,.63,0,.24,.11,.43,.34,.58,.23,.15,.61,.28,1.15,.38,.54,.11,1,.23,1.37,.36,1.15,.42,1.72,1.15,1.72,2.18,0,.74-.32,1.34-.95,1.8-.63,.46-1.46,.69-2.46,.69-.68,0-1.29-.12-1.81-.36-.53-.24-.94-.57-1.24-1-.3-.42-.45-.88-.45-1.37h2.06c.02,.39,.16,.68,.43,.89,.26,.21,.62,.31,1.07,.31,.42,0,.73-.08,.94-.24,.21-.16,.32-.36,.32-.62"></path></svg>