<svg xmlns="http://www.w3.org/2000/svg" xmlns:xlink="http://www.w3.org/1999/xlink" id="Layer_1" viewBox="0 0 235.5 68.5"><defs><style>.cls-1{fill:#fff;}.cls-2{clip-path:url(#clippath-1);}.cls-3{clip-path:url(#clippath);}.cls-4{fill:#d0f722;}</style><clipPath id="clippath"><path class="cls-4" d="M33.73,42.13c-.03-.08,.02-.11,.05-.16,.43-.59,.63-1.24,.59-1.95-.01-.19,.11-.16,.22-.16h3.11c.09,0,.21,.01,.19,.16-.05,.78,.19,1.47,.68,2.12-1.65,0-3.25,0-4.83-.02m-6.24-4.83h8.46c2.84,0,5.67,0,8.51-.01q.35,0,.35,.35v.9c-.01,.32-.16,.46-.47,.47H27.77c-.11,0-.21,.01-.3,0-.24-.03-.38-.18-.38-.41v-1.12c-.02-.13,.05-.19,.17-.17h.22Zm-.41-1.17v-9.16c0-.48,.08-.55,.56-.55h16.61c.44,0,.56,.1,.56,.54v9.24c.01,.22-.06,.29-.29,.29H27.42q-.35,0-.35-.35m-.86-9.25v11.62c0,.21,.03,.41,.11,.6,.24,.55,.68,.76,1.25,.76h5.56c.35,0,.38,.03,.36,.38-.05,.75-.36,1.33-.97,1.76-.14,.1-.3,.14-.48,.14h-1.81c-.24,0-.4,.16-.41,.36-.02,.24,.11,.41,.35,.46,.13,.03,.27,.03,.4,.03h10.68c.13,0,.24,0,.35-.01,.28-.03,.44-.19,.43-.43-.02-.25-.19-.4-.49-.4h-1.43c-.13,0-.25-.03-.36-.11-.65-.43-1-1.03-1.01-1.82-.02-.35,0-.35,.35-.35h5.17c.43,0,.81-.13,1.09-.46,.27-.32,.29-.68,.29-1.06v-11.27c0-.11-.02-.21-.02-.32,0-.73-.62-1.22-1.36-1.22-2.77,.02-5.56,0-8.34,0s-5.55,0-8.34-.03c-.87,0-1.38,.49-1.38,1.36"></path></clipPath><clipPath id="clippath-1"><path class="cls-4" d="M35.12,33.07v-2.98c0-.18,.03-.21,.19-.11,.76,.49,1.54,.98,2.31,1.47,.14,.1,.14,.14,0,.24-.78,.49-1.54,.98-2.31,1.47-.06,.04-.1,.06-.13,.06-.05,0-.06-.05-.06-.15m-.59-4.21c-.25,.13-.28,.35-.28,.6v2.12c0,.74,0,1.49,.03,2.22,0,.49,.43,.74,.83,.49,1.19-.75,2.36-1.49,3.55-2.25,.21-.13,.28-.33,.24-.59-.05-.19-.19-.29-.33-.38-1.11-.71-2.23-1.43-3.36-2.14-.14-.08-.28-.14-.42-.14-.08,0-.16,.02-.24,.06"></path></clipPath></defs><path class="cls-1" d="M201.25,68.5H34.25C15.33,68.5,0,53.17,0,34.25S15.33,0,34.25,0H201.25c18.92,0,34.25,15.33,34.25,34.25s-15.33,34.25-34.25,34.25"></path><path d="M59,34.25c0,12.98-10.52,23.5-23.5,23.5s-23.5-10.52-23.5-23.5S22.52,10.75,35.5,10.75s23.5,10.52,23.5,23.5"></path><path d="M82.2,37.69h-3.95l-.75,2.25h-2.4l4.07-10.93h2.09l4.09,10.93h-2.39l-.76-2.25Zm-3.34-1.82h2.73l-1.37-4.09-1.36,4.09Z"></path><path d="M89.61,38.34c.4,0,.73-.11,.98-.33,.25-.22,.38-.51,.39-.88h2.03c0,.55-.15,1.06-.45,1.51-.3,.46-.7,.81-1.21,1.07-.51,.25-1.08,.38-1.7,.38-1.16,0-2.08-.37-2.75-1.11-.67-.74-1.01-1.76-1.01-3.06v-.14c0-1.25,.33-2.25,1-3,.67-.75,1.58-1.12,2.74-1.12,1.02,0,1.83,.29,2.44,.87,.61,.58,.93,1.35,.93,2.31h-2.03c-.01-.42-.14-.77-.39-1.03-.25-.26-.58-.4-.99-.4-.51,0-.89,.18-1.14,.55-.26,.37-.39,.97-.39,1.79v.23c0,.84,.13,1.44,.38,1.8,.25,.37,.64,.55,1.16,.55"></path><path d="M97.99,40.09c-1.19,0-2.16-.36-2.91-1.1-.75-.73-1.12-1.7-1.12-2.92v-.21c0-.82,.16-1.54,.47-2.19,.32-.64,.76-1.14,1.34-1.49,.58-.35,1.24-.52,1.98-.52,1.11,0,1.99,.35,2.62,1.05,.64,.7,.96,1.69,.96,2.98v.89h-5.17c.07,.53,.28,.96,.63,1.28,.35,.32,.8,.48,1.34,.48,.84,0,1.49-.3,1.96-.91l1.07,1.19c-.33,.46-.77,.82-1.32,1.08s-1.17,.39-1.85,.39m-.25-6.68c-.43,0-.78,.15-1.05,.44-.27,.29-.44,.71-.51,1.25h3.02v-.17c0-.48-.14-.86-.39-1.12-.25-.26-.61-.4-1.07-.4"></path><path d="M106.96,37.69c0-.26-.13-.47-.39-.63-.26-.15-.68-.29-1.27-.41-1.93-.4-2.9-1.23-2.9-2.46,0-.72,.3-1.32,.9-1.81,.6-.48,1.38-.72,2.35-.72,1.03,0,1.86,.24,2.47,.73,.62,.49,.93,1.12,.93,1.89h-2.17c0-.31-.1-.57-.3-.77-.2-.2-.51-.3-.94-.3-.36,0-.65,.08-.85,.25-.2,.17-.3,.38-.3,.63,0,.24,.11,.43,.34,.58,.23,.15,.61,.27,1.15,.38,.54,.11,1,.23,1.37,.36,1.15,.42,1.72,1.15,1.72,2.18,0,.74-.32,1.34-.95,1.8-.64,.46-1.46,.69-2.46,.69-.68,0-1.28-.12-1.81-.37-.53-.24-.94-.57-1.24-1-.3-.42-.45-.88-.45-1.37h2.06c.02,.39,.16,.68,.43,.89,.26,.21,.62,.31,1.07,.31,.42,0,.73-.08,.94-.24,.21-.16,.32-.36,.32-.62"></path><path d="M114.86,37.69c0-.26-.13-.47-.39-.63-.26-.15-.68-.29-1.27-.41-1.93-.4-2.9-1.23-2.9-2.46,0-.72,.3-1.32,.9-1.81,.6-.48,1.38-.72,2.35-.72,1.03,0,1.86,.24,2.47,.73,.62,.49,.93,1.12,.93,1.89h-2.17c0-.31-.1-.57-.3-.77-.2-.2-.51-.3-.94-.3-.36,0-.65,.08-.85,.25-.2,.17-.3,.38-.3,.63,0,.24,.11,.43,.34,.58,.23,.15,.61,.27,1.15,.38,.54,.11,1,.23,1.37,.36,1.15,.42,1.72,1.15,1.72,2.18,0,.74-.32,1.34-.95,1.8-.64,.46-1.46,.69-2.46,.69-.68,0-1.28-.12-1.81-.37-.53-.24-.94-.57-1.24-1-.3-.42-.45-.88-.45-1.37h2.06c.02,.39,.16,.68,.43,.89,.26,.21,.62,.31,1.07,.31,.42,0,.73-.08,.94-.24,.21-.16,.32-.36,.32-.62"></path><path d="M118.03,35.8c0-.81,.15-1.52,.47-2.16,.31-.63,.76-1.12,1.34-1.46,.58-.35,1.26-.52,2.03-.52,1.1,0,1.99,.34,2.68,1.01,.69,.67,1.08,1.58,1.16,2.73v.56c.01,1.25-.33,2.25-1.03,3-.69,.75-1.63,1.13-2.8,1.13s-2.11-.38-2.81-1.13c-.7-.75-1.05-1.77-1.05-3.06v-.1Zm2.17,.15c0,.77,.14,1.36,.44,1.77,.29,.41,.71,.61,1.25,.61s.94-.2,1.23-.61c.29-.4,.44-1.05,.44-1.94,0-.76-.15-1.34-.44-1.76s-.71-.62-1.25-.62-.94,.21-1.23,.62c-.29,.41-.44,1.05-.44,1.92"></path><rect x="131.18" y="29.01" width="2.25" height="10.93"></rect><path d="M137.41,31.82l.07,.91c.58-.71,1.35-1.06,2.34-1.06,1.05,0,1.76,.41,2.15,1.24,.57-.83,1.38-1.24,2.44-1.24,.88,0,1.54,.26,1.97,.77,.43,.51,.65,1.29,.65,2.32v5.19h-2.18v-5.18c0-.46-.09-.8-.27-1.01-.18-.21-.5-.32-.95-.32-.65,0-1.1,.31-1.35,.93v5.58s-2.16,0-2.16,0v-5.17c0-.47-.09-.81-.28-1.02-.18-.21-.5-.32-.95-.32-.62,0-1.06,.25-1.34,.77v5.74h-2.17v-8.12h2.04Z"></path><path d="M152.43,40.09c-1.19,0-2.16-.36-2.91-1.1-.75-.73-1.12-1.7-1.12-2.92v-.21c0-.82,.16-1.54,.47-2.19,.32-.64,.76-1.14,1.34-1.49,.58-.35,1.24-.52,1.98-.52,1.11,0,1.99,.35,2.62,1.05,.64,.7,.96,1.69,.96,2.98v.89h-5.17c.07,.53,.28,.96,.63,1.28,.35,.32,.8,.48,1.34,.48,.84,0,1.49-.3,1.96-.91l1.07,1.19c-.33,.46-.77,.82-1.32,1.08-.55,.26-1.17,.39-1.85,.39m-.25-6.68c-.43,0-.78,.15-1.05,.44-.27,.29-.44,.71-.51,1.25h3.02v-.17c0-.48-.14-.86-.39-1.12-.25-.26-.61-.4-1.07-.4"></path><path d="M156.66,35.82c0-1.27,.28-2.28,.85-3.03,.57-.75,1.35-1.13,2.33-1.13,.79,0,1.44,.29,1.96,.88v-4.14h2.18v11.53h-1.96l-.1-.86c-.54,.68-1.24,1.01-2.09,1.01-.96,0-1.72-.38-2.3-1.13-.58-.75-.87-1.8-.87-3.14m2.17,.16c0,.76,.13,1.35,.4,1.75,.26,.41,.65,.61,1.16,.61,.67,0,1.14-.28,1.42-.85v-3.21c-.27-.57-.74-.85-1.4-.85-1.05,0-1.57,.85-1.57,2.55"></path><path d="M165.65,29.71c0-.32,.11-.59,.33-.8,.22-.21,.51-.32,.89-.32s.67,.1,.89,.32c.22,.21,.33,.48,.33,.8s-.11,.6-.33,.81c-.22,.21-.52,.31-.88,.31s-.66-.1-.88-.31c-.22-.21-.33-.48-.33-.81m2.3,10.23h-2.18v-8.12h2.18v8.12Z"></path><path d="M174.45,39.94c-.1-.2-.17-.44-.22-.73-.53,.59-1.21,.88-2.05,.88-.8,0-1.46-.23-1.98-.69-.52-.46-.79-1.04-.79-1.74,0-.86,.32-1.52,.96-1.98s1.56-.69,2.77-.7h1v-.47c0-.38-.1-.68-.29-.9-.19-.23-.5-.34-.91-.34-.36,0-.65,.09-.86,.26-.21,.18-.31,.42-.31,.72h-2.17c0-.47,.15-.91,.44-1.31,.29-.4,.7-.72,1.23-.94,.53-.23,1.13-.34,1.79-.34,1,0,1.8,.25,2.38,.76,.59,.5,.88,1.21,.88,2.12v3.52c0,.77,.11,1.35,.32,1.75v.13h-2.19Zm-1.79-1.51c.32,0,.62-.07,.89-.21,.27-.14,.47-.33,.6-.57v-1.4h-.81c-1.09,0-1.67,.38-1.74,1.13v.13c0,.27,.09,.49,.28,.67,.19,.17,.45,.26,.78,.26"></path><path d="M180.59,29.82v2h1.39v1.59h-1.39v4.06c0,.3,.06,.51,.17,.64,.12,.13,.34,.2,.66,.2,.24,0,.45-.02,.64-.05v1.64c-.43,.13-.86,.2-1.31,.2-1.52,0-2.3-.77-2.33-2.31v-4.38h-1.19v-1.59h1.19v-2h2.17Z"></path><path d="M182.62,35.8c0-.81,.15-1.52,.47-2.16,.31-.63,.76-1.12,1.34-1.46,.58-.35,1.26-.52,2.03-.52,1.1,0,1.99,.34,2.68,1.01,.69,.67,1.08,1.58,1.16,2.73v.56c.01,1.25-.33,2.25-1.03,3-.7,.75-1.63,1.13-2.8,1.13s-2.11-.38-2.8-1.13c-.7-.75-1.05-1.77-1.05-3.06v-.1Zm2.17,.15c0,.77,.14,1.36,.44,1.77,.29,.41,.71,.61,1.25,.61s.94-.2,1.23-.61c.29-.4,.44-1.05,.44-1.94,0-.76-.15-1.34-.44-1.76s-.71-.62-1.25-.62-.94,.21-1.23,.62c-.29,.41-.44,1.05-.44,1.92"></path><g><g><path class="cls-4" d="M33.73,42.13c-.03-.08,.02-.11,.05-.16,.43-.59,.63-1.24,.59-1.95-.01-.19,.11-.16,.22-.16h3.11c.09,0,.21,.01,.19,.16-.05,.78,.19,1.47,.68,2.12-1.65,0-3.25,0-4.83-.02m-6.24-4.83h8.46c2.84,0,5.67,0,8.51-.01q.35,0,.35,.35v.9c-.01,.32-.16,.46-.47,.47H27.77c-.11,0-.21,.01-.3,0-.24-.03-.38-.18-.38-.41v-1.12c-.02-.13,.05-.19,.17-.17h.22Zm-.41-1.17v-9.16c0-.48,.08-.55,.56-.55h16.61c.44,0,.56,.1,.56,.54v9.24c.01,.22-.06,.29-.29,.29H27.42q-.35,0-.35-.35m-.86-9.25v11.62c0,.21,.03,.41,.11,.6,.24,.55,.68,.76,1.25,.76h5.56c.35,0,.38,.03,.36,.38-.05,.75-.36,1.33-.97,1.76-.14,.1-.3,.14-.48,.14h-1.81c-.24,0-.4,.16-.41,.36-.02,.24,.11,.41,.35,.46,.13,.03,.27,.03,.4,.03h10.68c.13,0,.24,0,.35-.01,.28-.03,.44-.19,.43-.43-.02-.25-.19-.4-.49-.4h-1.43c-.13,0-.25-.03-.36-.11-.65-.43-1-1.03-1.01-1.82-.02-.35,0-.35,.35-.35h5.17c.43,0,.81-.13,1.09-.46,.27-.32,.29-.68,.29-1.06v-11.27c0-.11-.02-.21-.02-.32,0-.73-.62-1.22-1.36-1.22-2.77,.02-5.56,0-8.34,0s-5.55,0-8.34-.03c-.87,0-1.38,.49-1.38,1.36"></path><g class="cls-3"><rect class="cls-4" x="26.21" y="25.51" width="19.43" height="17.48"></rect></g></g><g><path class="cls-4" d="M35.12,33.07v-2.98c0-.18,.03-.21,.19-.11,.76,.49,1.54,.98,2.31,1.47,.14,.1,.14,.14,0,.24-.78,.49-1.54,.98-2.31,1.47-.06,.04-.1,.06-.13,.06-.05,0-.06-.05-.06-.15m-.59-4.21c-.25,.13-.28,.35-.28,.6v2.12c0,.74,0,1.49,.03,2.22,0,.49,.43,.74,.83,.49,1.19-.75,2.36-1.49,3.55-2.25,.21-.13,.28-.33,.24-.59-.05-.19-.19-.29-.33-.38-1.11-.71-2.23-1.43-3.36-2.14-.14-.08-.28-.14-.42-.14-.08,0-.16,.02-.24,.06"></path><g class="cls-2"><rect class="cls-4" x="34.25" y="28.79" width="4.69" height="5.75"></rect></g></g></g></svg>